<svg width="257" height="100" viewBox="0 0 257 100" fill="none" xmlns="http://www.w3.org/2000/svg">
<rect x="0.890137" y="0.169983" width="255.31" height="99" rx="8" fill="#0D83FD"/>
<path d="M77.4724 47.17C76.9658 47.17 76.5658 47.0233 76.2724 46.73C75.9791 46.4366 75.8324 46.05 75.8324 45.57C75.8324 45.0633 75.9791 44.6766 76.2724 44.41C76.5658 44.1433 76.9658 44.01 77.4724 44.01H82.5124V22.05H84.4324L78.5924 25.81C78.2191 26.05 77.8591 26.1566 77.5124 26.13C77.1924 26.0766 76.9124 25.9433 76.6724 25.73C76.4324 25.49 76.2724 25.21 76.1924 24.89C76.1124 24.57 76.1258 24.25 76.2324 23.93C76.3658 23.5833 76.6324 23.3033 77.0324 23.09L82.5524 19.49C82.9524 19.25 83.3258 19.0633 83.6724 18.93C84.0458 18.77 84.4058 18.69 84.7524 18.69C85.1524 18.69 85.4991 18.81 85.7924 19.05C86.0858 19.29 86.2324 19.6766 86.2324 20.21V44.01H90.8724C91.4058 44.01 91.8058 44.1433 92.0724 44.41C92.3658 44.6766 92.5124 45.0633 92.5124 45.57C92.5124 46.0766 92.3658 46.4766 92.0724 46.77C91.8058 47.0366 91.4058 47.17 90.8724 47.17H77.4724ZM107.777 47.53C106.283 47.53 104.777 47.3166 103.257 46.89C101.763 46.4366 100.403 45.7566 99.1768 44.85C98.8301 44.61 98.5901 44.33 98.4568 44.01C98.3501 43.6633 98.3368 43.33 98.4168 43.01C98.4968 42.69 98.6568 42.4233 98.8968 42.21C99.1368 41.97 99.4168 41.8366 99.7368 41.81C100.083 41.7833 100.443 41.89 100.817 42.13C101.883 42.8766 102.99 43.4366 104.137 43.81C105.283 44.1566 106.483 44.33 107.737 44.33C108.99 44.33 110.07 44.09 110.977 43.61C111.883 43.13 112.577 42.4633 113.057 41.61C113.563 40.7566 113.817 39.7566 113.817 38.61C113.817 36.85 113.297 35.41 112.257 34.29C111.217 33.17 109.803 32.61 108.017 32.61C106.923 32.61 105.91 32.81 104.977 33.21C104.07 33.5833 103.217 34.2233 102.417 35.13C102.23 35.3433 101.99 35.53 101.697 35.69C101.43 35.85 101.123 35.93 100.777 35.93C100.27 35.93 99.8835 35.7966 99.6168 35.53C99.3501 35.2366 99.2168 34.85 99.2168 34.37V20.65C99.2168 20.1166 99.3635 19.7033 99.6568 19.41C99.9501 19.1166 100.363 18.97 100.897 18.97H114.377C114.91 18.97 115.323 19.1033 115.617 19.37C115.91 19.6366 116.057 20.0233 116.057 20.53C116.057 21.0366 115.91 21.4366 115.617 21.73C115.323 21.9966 114.91 22.13 114.377 22.13H102.857V32.81H101.817C102.537 31.7433 103.497 30.9166 104.697 30.33C105.923 29.7433 107.27 29.45 108.737 29.45C110.523 29.45 112.057 29.8366 113.337 30.61C114.643 31.3566 115.657 32.41 116.377 33.77C117.097 35.1033 117.457 36.6633 117.457 38.45C117.457 40.21 117.057 41.7833 116.257 43.17C115.483 44.53 114.377 45.5966 112.937 46.37C111.497 47.1433 109.777 47.53 107.777 47.53ZM131.241 45.85C130.788 45.85 130.441 45.73 130.201 45.49C129.961 45.2233 129.841 44.8633 129.841 44.41V37.05H122.601C122.148 37.05 121.801 36.93 121.561 36.69C121.321 36.45 121.201 36.1166 121.201 35.69C121.201 35.2633 121.321 34.93 121.561 34.69C121.801 34.45 122.148 34.33 122.601 34.33H129.841V27.21C129.841 26.73 129.961 26.37 130.201 26.13C130.441 25.89 130.801 25.77 131.281 25.77C131.735 25.77 132.068 25.89 132.281 26.13C132.521 26.37 132.641 26.73 132.641 27.21V34.33H139.881C140.335 34.33 140.681 34.45 140.921 34.69C141.161 34.93 141.281 35.2633 141.281 35.69C141.281 36.1166 141.161 36.45 140.921 36.69C140.681 36.93 140.335 37.05 139.881 37.05H132.641V44.41C132.641 44.8633 132.521 45.2233 132.281 45.49C132.068 45.73 131.721 45.85 131.241 45.85Z" fill="white"/>
<path d="M157.271 47.282C157.037 47.282 156.855 47.218 156.727 47.09C156.599 46.9513 156.535 46.754 156.535 46.498V41.33L156.855 42.322L152.887 36.818C152.781 36.6686 152.727 36.514 152.727 36.354C152.738 36.1833 152.802 36.0446 152.919 35.938C153.037 35.8313 153.197 35.778 153.399 35.778C153.559 35.778 153.703 35.8153 153.831 35.89C153.959 35.9646 154.082 36.0873 154.199 36.258L157.495 40.802H157.127L160.423 36.258C160.541 36.0766 160.658 35.954 160.775 35.89C160.893 35.8153 161.042 35.778 161.223 35.778C161.415 35.778 161.565 35.8313 161.671 35.938C161.789 36.034 161.847 36.162 161.847 36.322C161.858 36.482 161.799 36.6473 161.671 36.818L157.703 42.322L158.023 41.33V46.498C158.023 47.0206 157.773 47.282 157.271 47.282ZM165.567 47.314C164.725 47.314 163.999 47.154 163.391 46.834C162.794 46.5033 162.33 46.0393 161.999 45.442C161.669 44.834 161.503 44.1193 161.503 43.298C161.503 42.4873 161.663 41.778 161.983 41.17C162.314 40.562 162.762 40.0873 163.327 39.746C163.903 39.4046 164.559 39.234 165.295 39.234C165.818 39.234 166.287 39.3246 166.703 39.506C167.13 39.6766 167.493 39.9273 167.791 40.258C168.09 40.5886 168.314 40.994 168.463 41.474C168.623 41.9433 168.703 42.4766 168.703 43.074C168.703 43.2446 168.65 43.378 168.543 43.474C168.447 43.5593 168.303 43.602 168.111 43.602H162.639V42.674H167.743L167.471 42.898C167.471 42.3433 167.386 41.874 167.215 41.49C167.055 41.0953 166.815 40.7966 166.495 40.594C166.186 40.3913 165.797 40.29 165.327 40.29C164.815 40.29 164.378 40.4126 164.015 40.658C163.653 40.8926 163.375 41.2286 163.183 41.666C162.991 42.0926 162.895 42.5886 162.895 43.154V43.25C162.895 44.21 163.125 44.9353 163.583 45.426C164.042 45.9166 164.703 46.162 165.567 46.162C165.909 46.162 166.255 46.1193 166.607 46.034C166.97 45.9486 167.317 45.794 167.647 45.57C167.807 45.474 167.951 45.4313 168.079 45.442C168.218 45.442 168.33 45.4846 168.415 45.57C168.501 45.6446 168.554 45.7406 168.575 45.858C168.597 45.9646 168.581 46.082 168.527 46.21C168.474 46.338 168.373 46.45 168.223 46.546C167.871 46.7913 167.45 46.9833 166.959 47.122C166.479 47.25 166.015 47.314 165.567 47.314ZM172.994 47.314C172.461 47.314 171.976 47.2073 171.538 46.994C171.112 46.7806 170.776 46.4926 170.53 46.13C170.296 45.7673 170.178 45.362 170.178 44.914C170.178 44.338 170.322 43.8846 170.61 43.554C170.898 43.2233 171.384 42.9886 172.066 42.85C172.749 42.7006 173.666 42.626 174.818 42.626H175.57V43.554H174.85C174.029 43.554 173.378 43.5913 172.898 43.666C172.429 43.7406 172.098 43.874 171.906 44.066C171.714 44.2473 171.618 44.5033 171.618 44.834C171.618 45.25 171.762 45.5913 172.05 45.858C172.349 46.1246 172.754 46.258 173.266 46.258C173.672 46.258 174.029 46.162 174.338 45.97C174.648 45.7673 174.893 45.5006 175.074 45.17C175.256 44.8286 175.346 44.4393 175.346 44.002V42.162C175.346 41.5326 175.218 41.0793 174.962 40.802C174.706 40.514 174.274 40.37 173.666 40.37C173.314 40.37 172.952 40.418 172.578 40.514C172.205 40.61 171.816 40.7593 171.41 40.962C171.25 41.0366 171.112 41.0633 170.994 41.042C170.877 41.01 170.781 40.946 170.706 40.85C170.642 40.7433 170.605 40.6313 170.594 40.514C170.594 40.386 170.621 40.2633 170.674 40.146C170.738 40.0286 170.845 39.9433 170.994 39.89C171.464 39.6553 171.928 39.49 172.386 39.394C172.856 39.2873 173.293 39.234 173.698 39.234C174.392 39.234 174.962 39.346 175.41 39.57C175.858 39.7833 176.194 40.1193 176.418 40.578C176.642 41.026 176.754 41.602 176.754 42.306V46.53C176.754 46.7753 176.696 46.962 176.578 47.09C176.461 47.218 176.29 47.282 176.066 47.282C175.853 47.282 175.682 47.218 175.554 47.09C175.437 46.962 175.378 46.7753 175.378 46.53V45.394H175.522C175.437 45.7886 175.277 46.13 175.042 46.418C174.808 46.706 174.514 46.93 174.162 47.09C173.821 47.2393 173.432 47.314 172.994 47.314ZM179.797 47.282C179.552 47.282 179.365 47.218 179.237 47.09C179.109 46.962 179.045 46.7753 179.045 46.53V40.002C179.045 39.7566 179.109 39.5753 179.237 39.458C179.365 39.33 179.541 39.266 179.765 39.266C179.989 39.266 180.16 39.33 180.277 39.458C180.405 39.5753 180.469 39.7566 180.469 40.002V41.234H180.309C180.48 40.594 180.8 40.1086 181.269 39.778C181.739 39.4473 182.331 39.2606 183.045 39.218C183.216 39.2073 183.355 39.25 183.461 39.346C183.568 39.4313 183.627 39.5806 183.637 39.794C183.648 39.9966 183.6 40.162 183.493 40.29C183.387 40.4073 183.221 40.4766 182.997 40.498L182.709 40.514C182.005 40.5886 181.461 40.818 181.077 41.202C180.704 41.586 180.517 42.114 180.517 42.786V46.53C180.517 46.7753 180.453 46.962 180.325 47.09C180.208 47.218 180.032 47.282 179.797 47.282ZM187.499 47.314C187.019 47.314 186.534 47.2606 186.043 47.154C185.563 47.0366 185.11 46.8393 184.683 46.562C184.566 46.4873 184.48 46.3966 184.427 46.29C184.384 46.1726 184.368 46.0606 184.379 45.954C184.4 45.8366 184.448 45.7353 184.523 45.65C184.598 45.5646 184.688 45.5166 184.795 45.506C184.912 45.4846 185.035 45.5113 185.163 45.586C185.579 45.8206 185.979 45.986 186.363 46.082C186.758 46.178 187.147 46.226 187.531 46.226C188.118 46.226 188.56 46.1193 188.859 45.906C189.158 45.6926 189.307 45.41 189.307 45.058C189.307 44.7593 189.206 44.53 189.003 44.37C188.811 44.1993 188.507 44.0713 188.091 43.986L186.603 43.682C185.942 43.5326 185.44 43.2873 185.099 42.946C184.768 42.594 184.603 42.146 184.603 41.602C184.603 41.122 184.731 40.706 184.987 40.354C185.254 39.9913 185.622 39.714 186.091 39.522C186.56 39.33 187.099 39.234 187.707 39.234C188.176 39.234 188.619 39.298 189.035 39.426C189.462 39.5433 189.846 39.7246 190.187 39.97C190.315 40.0446 190.395 40.1406 190.427 40.258C190.47 40.3646 190.475 40.4766 190.443 40.594C190.422 40.7006 190.374 40.7913 190.299 40.866C190.224 40.9406 190.128 40.9886 190.011 41.01C189.894 41.0206 189.766 40.9886 189.627 40.914C189.318 40.7006 188.998 40.5513 188.667 40.466C188.347 40.37 188.027 40.322 187.707 40.322C187.131 40.322 186.694 40.434 186.395 40.658C186.107 40.882 185.963 41.1753 185.963 41.538C185.963 41.8153 186.048 42.0446 186.219 42.226C186.4 42.4073 186.683 42.5406 187.067 42.626L188.555 42.93C189.248 43.0793 189.771 43.3193 190.123 43.65C190.475 43.97 190.651 44.4073 190.651 44.962C190.651 45.6873 190.363 46.2633 189.787 46.69C189.222 47.106 188.459 47.314 187.499 47.314Z" fill="white"/>
<path d="M33.7609 63.879V64.5079C33.7609 65.2553 33.6675 65.9252 33.4806 66.5176C33.2938 67.1101 33.0249 67.6137 32.674 68.0284C32.3231 68.4431 31.9015 68.7598 31.4093 68.9786C30.9217 69.1973 30.3748 69.3067 29.7687 69.3067C29.1808 69.3067 28.6408 69.1973 28.1486 68.9786C27.6609 68.7598 27.2371 68.4431 26.8771 68.0284C26.5216 67.6137 26.2459 67.1101 26.0499 66.5176C25.854 65.9252 25.756 65.2553 25.756 64.5079V63.879C25.756 63.1316 25.8517 62.4639 26.0431 61.876C26.2391 61.2836 26.5148 60.78 26.8703 60.3653C27.2257 59.946 27.6473 59.627 28.1349 59.4083C28.6271 59.1895 29.1671 59.0801 29.755 59.0801C30.3611 59.0801 30.908 59.1895 31.3956 59.4083C31.8878 59.627 32.3094 59.946 32.6603 60.3653C33.0158 60.78 33.2869 61.2836 33.4738 61.876C33.6652 62.4639 33.7609 63.1316 33.7609 63.879ZM32.4552 64.5079V63.8653C32.4552 63.2728 32.3937 62.7488 32.2706 62.293C32.1522 61.8373 31.9767 61.4545 31.7443 61.1446C31.5119 60.8347 31.227 60.6 30.8898 60.4405C30.5571 60.281 30.1788 60.2012 29.755 60.2012C29.3449 60.2012 28.9734 60.281 28.6408 60.4405C28.3126 60.6 28.0301 60.8347 27.7931 61.1446C27.5607 61.4545 27.3807 61.8373 27.2531 62.293C27.1255 62.7488 27.0617 63.2728 27.0617 63.8653V64.5079C27.0617 65.1049 27.1255 65.6335 27.2531 66.0938C27.3807 66.5495 27.563 66.9346 27.7999 67.2491C28.0415 67.559 28.3263 67.7937 28.6544 67.9532C28.9871 68.1127 29.3585 68.1924 29.7687 68.1924C30.1971 68.1924 30.5776 68.1127 30.9103 67.9532C31.243 67.7937 31.5232 67.559 31.7511 67.2491C31.9835 66.9346 32.159 66.5495 32.2775 66.0938C32.396 65.6335 32.4552 65.1049 32.4552 64.5079ZM37.4318 69.17H36.1671V60.9942C36.1671 60.461 36.2628 60.0121 36.4542 59.6475C36.6502 59.2784 36.9305 59.0004 37.2951 58.8135C37.6596 58.6221 38.0926 58.5264 38.5939 58.5264C38.7397 58.5264 38.8856 58.5355 39.0314 58.5538C39.1818 58.572 39.3276 58.5993 39.4689 58.6358L39.4005 59.668C39.3048 59.6452 39.1954 59.6293 39.0724 59.6202C38.9539 59.6111 38.8354 59.6065 38.7169 59.6065C38.4481 59.6065 38.2156 59.6612 38.0197 59.7706C37.8283 59.8754 37.6824 60.0303 37.5822 60.2354C37.4819 60.4405 37.4318 60.6934 37.4318 60.9942V69.17ZM39.004 61.7735V62.7442H34.9982V61.7735H39.004ZM46.9542 69.3067C46.4393 69.3067 45.9721 69.2201 45.5529 69.0469C45.1382 68.8692 44.7804 68.6208 44.4796 68.3018C44.1834 67.9828 43.9555 67.6046 43.796 67.1671C43.6365 66.7296 43.5568 66.251 43.5568 65.7315V65.4444C43.5568 64.8428 43.6456 64.3074 43.8234 63.838C44.0011 63.364 44.2427 62.963 44.548 62.6348C44.8533 62.3067 45.1997 62.0583 45.5871 61.8897C45.9744 61.7211 46.3755 61.6368 46.7902 61.6368C47.3188 61.6368 47.7746 61.7279 48.1574 61.9102C48.5447 62.0925 48.8615 62.3477 49.1076 62.6758C49.3537 62.9994 49.5359 63.3822 49.6544 63.8243C49.7729 64.2618 49.8322 64.7403 49.8322 65.2598V65.8272H44.3087V64.795H48.5675V64.6993C48.5493 64.3712 48.4809 64.0521 48.3624 63.7422C48.2485 63.4324 48.0662 63.1771 47.8156 62.9766C47.5649 62.7761 47.2231 62.6758 46.7902 62.6758C46.5031 62.6758 46.2387 62.7374 45.9972 62.8604C45.7557 62.9789 45.5483 63.1566 45.3751 63.3936C45.202 63.6306 45.0675 63.92 44.9718 64.2618C44.8761 64.6036 44.8283 64.9978 44.8283 65.4444V65.7315C44.8283 66.0824 44.8761 66.4128 44.9718 66.7227C45.0721 67.0281 45.2156 67.2969 45.4025 67.5294C45.5939 67.7618 45.824 67.9441 46.0929 68.0762C46.3663 68.2084 46.6762 68.2745 47.0226 68.2745C47.4692 68.2745 47.8475 68.1833 48.1574 68.001C48.4673 67.8187 48.7384 67.5749 48.9708 67.2696L49.7365 67.878C49.577 68.1195 49.3742 68.3497 49.1281 68.5684C48.882 68.7872 48.5789 68.9649 48.2189 69.1016C47.8634 69.2383 47.4419 69.3067 46.9542 69.3067ZM52.1632 61.7735L53.7833 64.4669L55.424 61.7735H56.9074L54.4874 65.4239L56.9826 69.17H55.5197L53.8107 66.3946L52.1017 69.17H50.632L53.1203 65.4239L50.7072 61.7735H52.1632ZM59.5187 63.1954V72.0137H58.2472V61.7735H59.4093L59.5187 63.1954ZM64.5021 65.4102V65.5538C64.5021 66.0915 64.4383 66.5906 64.3107 67.0508C64.1831 67.5066 63.9962 67.9031 63.7501 68.2403C63.5086 68.5775 63.2101 68.8396 62.8546 69.0264C62.4992 69.2133 62.0913 69.3067 61.631 69.3067C61.1616 69.3067 60.7469 69.2292 60.3869 69.0743C60.0268 68.9193 59.7215 68.6937 59.4708 68.3975C59.2202 68.1013 59.0197 67.7458 58.8693 67.3311C58.7234 66.9164 58.6232 66.4493 58.5685 65.9297V65.1641C58.6232 64.6172 58.7257 64.1273 58.8761 63.6944C59.0265 63.2615 59.2247 62.8923 59.4708 62.587C59.7215 62.2771 60.0246 62.0424 60.38 61.8829C60.7355 61.7188 61.1456 61.6368 61.6105 61.6368C62.0753 61.6368 62.4878 61.7279 62.8478 61.9102C63.2078 62.088 63.5109 62.3432 63.757 62.6758C64.0031 63.0085 64.1876 63.4073 64.3107 63.8721C64.4383 64.3324 64.5021 64.8451 64.5021 65.4102ZM63.2306 65.5538V65.4102C63.2306 65.0411 63.1919 64.6947 63.1144 64.3712C63.0369 64.043 62.9162 63.7559 62.7521 63.5098C62.5926 63.2592 62.3875 63.0632 62.1369 62.9219C61.8862 62.7761 61.5877 62.7032 61.2413 62.7032C60.9223 62.7032 60.6443 62.7579 60.4074 62.8672C60.1749 62.9766 59.9767 63.1247 59.8126 63.3116C59.6486 63.4939 59.5141 63.7035 59.4093 63.9405C59.3091 64.1729 59.2339 64.4144 59.1837 64.6651V66.4356C59.2749 66.7546 59.4025 67.0554 59.5665 67.338C59.7306 67.6159 59.9494 67.8415 60.2228 68.0147C60.4962 68.1833 60.8403 68.2676 61.255 68.2676C61.5968 68.2676 61.8908 68.197 62.1369 68.0557C62.3875 67.9099 62.5926 67.7116 62.7521 67.461C62.9162 67.2103 63.0369 66.9232 63.1144 66.5997C63.1919 66.2715 63.2306 65.9229 63.2306 65.5538ZM69.1847 69.3067C68.6697 69.3067 68.2026 69.2201 67.7833 69.0469C67.3686 68.8692 67.0109 68.6208 66.7101 68.3018C66.4139 67.9828 66.186 67.6046 66.0265 67.1671C65.867 66.7296 65.7872 66.251 65.7872 65.7315V65.4444C65.7872 64.8428 65.8761 64.3074 66.0538 63.838C66.2316 63.364 66.4731 62.963 66.7785 62.6348C67.0838 62.3067 67.4302 62.0583 67.8175 61.8897C68.2049 61.7211 68.6059 61.6368 69.0206 61.6368C69.5493 61.6368 70.005 61.7279 70.3878 61.9102C70.7752 62.0925 71.0919 62.3477 71.338 62.6758C71.5841 62.9994 71.7664 63.3822 71.8849 63.8243C72.0034 64.2618 72.0626 64.7403 72.0626 65.2598V65.8272H66.5392V64.795H70.798V64.6993C70.7798 64.3712 70.7114 64.0521 70.5929 63.7422C70.479 63.4324 70.2967 63.1771 70.046 62.9766C69.7954 62.7761 69.4536 62.6758 69.0206 62.6758C68.7335 62.6758 68.4692 62.7374 68.2277 62.8604C67.9861 62.9789 67.7788 63.1566 67.6056 63.3936C67.4324 63.6306 67.298 63.92 67.2023 64.2618C67.1066 64.6036 67.0587 64.9978 67.0587 65.4444V65.7315C67.0587 66.0824 67.1066 66.4128 67.2023 66.7227C67.3025 67.0281 67.4461 67.2969 67.6329 67.5294C67.8244 67.7618 68.0545 67.9441 68.3234 68.0762C68.5968 68.2084 68.9067 68.2745 69.2531 68.2745C69.6997 68.2745 70.0779 68.1833 70.3878 68.001C70.6977 67.8187 70.9689 67.5749 71.2013 67.2696L71.9669 67.878C71.8074 68.1195 71.6046 68.3497 71.3585 68.5684C71.1124 68.7872 70.8094 68.9649 70.4494 69.1016C70.0939 69.2383 69.6723 69.3067 69.1847 69.3067ZM74.8038 62.9356V69.17H73.5392V61.7735H74.7697L74.8038 62.9356ZM77.1144 61.7325L77.1076 62.9083C77.0027 62.8855 76.9025 62.8718 76.8068 62.8672C76.7156 62.8581 76.6108 62.8536 76.4923 62.8536C76.2007 62.8536 75.9432 62.8991 75.7199 62.9903C75.4966 63.0814 75.3074 63.209 75.1525 63.3731C74.9975 63.5372 74.8745 63.7331 74.7833 63.961C74.6968 64.1843 74.6398 64.4304 74.6124 64.6993L74.257 64.9044C74.257 64.4577 74.3003 64.0385 74.3869 63.6465C74.478 63.2546 74.617 62.9083 74.8038 62.6075C74.9907 62.3021 75.2277 62.0652 75.5148 61.8965C75.8065 61.7234 76.1528 61.6368 76.5538 61.6368C76.645 61.6368 76.7498 61.6482 76.8683 61.671C76.9868 61.6892 77.0688 61.7097 77.1144 61.7325ZM79.6574 61.7735V69.17H78.3859V61.7735H79.6574ZM78.2902 59.8116C78.2902 59.6065 78.3517 59.4333 78.4747 59.2921C78.6024 59.1508 78.7892 59.0801 79.0353 59.0801C79.2768 59.0801 79.4614 59.1508 79.589 59.2921C79.7212 59.4333 79.7872 59.6065 79.7872 59.8116C79.7872 60.0075 79.7212 60.1762 79.589 60.3174C79.4614 60.4542 79.2768 60.5225 79.0353 60.5225C78.7892 60.5225 78.6024 60.4542 78.4747 60.3174C78.3517 60.1762 78.2902 60.0075 78.2902 59.8116ZM84.757 69.3067C84.242 69.3067 83.7749 69.2201 83.3556 69.0469C82.9409 68.8692 82.5831 68.6208 82.2824 68.3018C81.9861 67.9828 81.7583 67.6046 81.5988 67.1671C81.4393 66.7296 81.3595 66.251 81.3595 65.7315V65.4444C81.3595 64.8428 81.4484 64.3074 81.6261 63.838C81.8038 63.364 82.0454 62.963 82.3507 62.6348C82.6561 62.3067 83.0024 62.0583 83.3898 61.8897C83.7772 61.7211 84.1782 61.6368 84.5929 61.6368C85.1216 61.6368 85.5773 61.7279 85.9601 61.9102C86.3475 62.0925 86.6642 62.3477 86.9103 62.6758C87.1564 62.9994 87.3387 63.3822 87.4572 63.8243C87.5757 64.2618 87.6349 64.7403 87.6349 65.2598V65.8272H82.1115V64.795H86.3703V64.6993C86.352 64.3712 86.2837 64.0521 86.1652 63.7422C86.0512 63.4324 85.869 63.1771 85.6183 62.9766C85.3677 62.7761 85.0259 62.6758 84.5929 62.6758C84.3058 62.6758 84.0415 62.7374 83.7999 62.8604C83.5584 62.9789 83.351 63.1566 83.1779 63.3936C83.0047 63.6306 82.8703 63.92 82.7746 64.2618C82.6788 64.6036 82.631 64.9978 82.631 65.4444V65.7315C82.631 66.0824 82.6788 66.4128 82.7746 66.7227C82.8748 67.0281 83.0184 67.2969 83.2052 67.5294C83.3966 67.7618 83.6268 67.9441 83.8956 68.0762C84.1691 68.2084 84.479 68.2745 84.8253 68.2745C85.2719 68.2745 85.6502 68.1833 85.9601 68.001C86.27 67.8187 86.5412 67.5749 86.7736 67.2696L87.5392 67.878C87.3797 68.1195 87.1769 68.3497 86.9308 68.5684C86.6847 68.7872 86.3816 68.9649 86.0216 69.1016C85.6662 69.2383 85.2446 69.3067 84.757 69.3067ZM90.3761 63.3526V69.17H89.1115V61.7735H90.3078L90.3761 63.3526ZM90.0753 65.1915L89.549 65.171C89.5535 64.6651 89.6287 64.198 89.7746 63.7696C89.9204 63.3366 90.1255 62.9607 90.3898 62.6417C90.6541 62.3227 90.9686 62.0766 91.3331 61.9034C91.7023 61.7256 92.1102 61.6368 92.5568 61.6368C92.9214 61.6368 93.2495 61.6869 93.5412 61.7872C93.8328 61.8829 94.0812 62.0378 94.2863 62.252C94.4959 62.4662 94.6554 62.7442 94.7648 63.086C94.8742 63.4232 94.9288 63.8357 94.9288 64.3233V69.17H93.6574V64.3096C93.6574 63.9223 93.6004 63.6124 93.4865 63.3799C93.3725 63.143 93.2062 62.9721 92.9874 62.8672C92.7687 62.7579 92.4998 62.7032 92.1808 62.7032C91.8663 62.7032 91.5792 62.7693 91.3195 62.9014C91.0643 63.0336 90.8432 63.2159 90.6564 63.4483C90.4741 63.6807 90.3305 63.9473 90.2257 64.2481C90.1255 64.5443 90.0753 64.8588 90.0753 65.1915ZM99.8097 68.2676C100.11 68.2676 100.388 68.2061 100.644 68.0831C100.899 67.96 101.109 67.7914 101.273 67.5772C101.437 67.3585 101.53 67.1101 101.553 66.8321H102.756C102.733 67.2696 102.585 67.6775 102.312 68.0557C102.043 68.4294 101.69 68.7325 101.252 68.9649C100.815 69.1928 100.334 69.3067 99.8097 69.3067C99.2537 69.3067 98.7684 69.2087 98.3537 69.0128C97.9435 68.8168 97.6017 68.5479 97.3283 68.2061C97.0594 67.8643 96.8566 67.4724 96.7199 67.0303C96.5877 66.5837 96.5216 66.112 96.5216 65.6153V65.3282C96.5216 64.8314 96.5877 64.362 96.7199 63.92C96.8566 63.4734 97.0594 63.0792 97.3283 62.7374C97.6017 62.3956 97.9435 62.1267 98.3537 61.9307C98.7684 61.7348 99.2537 61.6368 99.8097 61.6368C100.388 61.6368 100.894 61.7553 101.327 61.9922C101.76 62.2247 102.1 62.5437 102.346 62.9493C102.596 63.3503 102.733 63.8061 102.756 64.3165H101.553C101.53 64.0111 101.443 63.7354 101.293 63.4893C101.147 63.2432 100.947 63.0473 100.692 62.9014C100.441 62.751 100.147 62.6758 99.8097 62.6758C99.4223 62.6758 99.0965 62.7533 98.8322 62.9083C98.5724 63.0587 98.365 63.2637 98.2101 63.5235C98.0597 63.7787 97.9503 64.0635 97.882 64.378C97.8182 64.6879 97.7863 65.0046 97.7863 65.3282V65.6153C97.7863 65.9389 97.8182 66.2579 97.882 66.5723C97.9458 66.8868 98.0529 67.1716 98.2033 67.4268C98.3582 67.682 98.5656 67.8871 98.8253 68.0421C99.0897 68.1924 99.4178 68.2676 99.8097 68.2676ZM107.247 69.3067C106.732 69.3067 106.265 69.2201 105.846 69.0469C105.431 68.8692 105.073 68.6208 104.773 68.3018C104.476 67.9828 104.249 67.6046 104.089 67.1671C103.929 66.7296 103.85 66.251 103.85 65.7315V65.4444C103.85 64.8428 103.939 64.3074 104.116 63.838C104.294 63.364 104.536 62.963 104.841 62.6348C105.146 62.3067 105.493 62.0583 105.88 61.8897C106.267 61.7211 106.668 61.6368 107.083 61.6368C107.612 61.6368 108.068 61.7279 108.45 61.9102C108.838 62.0925 109.154 62.3477 109.401 62.6758C109.647 62.9994 109.829 63.3822 109.947 63.8243C110.066 64.2618 110.125 64.7403 110.125 65.2598V65.8272H104.602V64.795H108.86V64.6993C108.842 64.3712 108.774 64.0521 108.655 63.7422C108.541 63.4324 108.359 63.1771 108.109 62.9766C107.858 62.7761 107.516 62.6758 107.083 62.6758C106.796 62.6758 106.532 62.7374 106.29 62.8604C106.049 62.9789 105.841 63.1566 105.668 63.3936C105.495 63.6306 105.36 63.92 105.265 64.2618C105.169 64.6036 105.121 64.9978 105.121 65.4444V65.7315C105.121 66.0824 105.169 66.4128 105.265 66.7227C105.365 67.0281 105.509 67.2969 105.695 67.5294C105.887 67.7618 106.117 67.9441 106.386 68.0762C106.659 68.2084 106.969 68.2745 107.316 68.2745C107.762 68.2745 108.14 68.1833 108.45 68.001C108.76 67.8187 109.031 67.5749 109.264 67.2696L110.029 67.878C109.87 68.1195 109.667 68.3497 109.421 68.5684C109.175 68.7872 108.872 68.9649 108.512 69.1016C108.156 69.2383 107.735 69.3067 107.247 69.3067ZM116.448 61.7735V69.17H115.177V61.7735H116.448ZM115.081 59.8116C115.081 59.6065 115.143 59.4333 115.266 59.2921C115.393 59.1508 115.58 59.0801 115.826 59.0801C116.068 59.0801 116.252 59.1508 116.38 59.2921C116.512 59.4333 116.578 59.6065 116.578 59.8116C116.578 60.0075 116.512 60.1762 116.38 60.3174C116.252 60.4542 116.068 60.5225 115.826 60.5225C115.58 60.5225 115.393 60.4542 115.266 60.3174C115.143 60.1762 115.081 60.0075 115.081 59.8116ZM119.743 63.3526V69.17H118.479V61.7735H119.675L119.743 63.3526ZM119.443 65.1915L118.916 65.171C118.921 64.6651 118.996 64.198 119.142 63.7696C119.288 63.3366 119.493 62.9607 119.757 62.6417C120.021 62.3227 120.336 62.0766 120.7 61.9034C121.069 61.7256 121.477 61.6368 121.924 61.6368C122.289 61.6368 122.617 61.6869 122.908 61.7872C123.2 61.8829 123.448 62.0378 123.653 62.252C123.863 62.4662 124.023 62.7442 124.132 63.086C124.241 63.4232 124.296 63.8357 124.296 64.3233V69.17H123.025V64.3096C123.025 63.9223 122.968 63.6124 122.854 63.3799C122.74 63.143 122.573 62.9721 122.355 62.8672C122.136 62.7579 121.867 62.7032 121.548 62.7032C121.234 62.7032 120.946 62.7693 120.687 62.9014C120.431 63.0336 120.21 63.2159 120.024 63.4483C119.841 63.6807 119.698 63.9473 119.593 64.2481C119.493 64.5443 119.443 64.8588 119.443 65.1915ZM129.683 58.67H130.954V67.7344L130.845 69.17H129.683V58.67ZM135.951 65.4102V65.5538C135.951 66.0915 135.888 66.5906 135.76 67.0508C135.632 67.5066 135.445 67.9031 135.199 68.2403C134.953 68.5775 134.652 68.8396 134.297 69.0264C133.942 69.2133 133.534 69.3067 133.073 69.3067C132.604 69.3067 132.192 69.2269 131.836 69.0674C131.485 68.9034 131.189 68.6687 130.947 68.3633C130.706 68.058 130.512 67.6889 130.366 67.2559C130.225 66.823 130.127 66.3353 130.072 65.793V65.1641C130.127 64.6172 130.225 64.1273 130.366 63.6944C130.512 63.2615 130.706 62.8923 130.947 62.587C131.189 62.2771 131.485 62.0424 131.836 61.8829C132.187 61.7188 132.595 61.6368 133.06 61.6368C133.525 61.6368 133.937 61.7279 134.297 61.9102C134.657 62.088 134.958 62.3432 135.199 62.6758C135.445 63.0085 135.632 63.4073 135.76 63.8721C135.888 64.3324 135.951 64.8451 135.951 65.4102ZM134.68 65.5538V65.4102C134.68 65.0411 134.646 64.6947 134.577 64.3712C134.509 64.043 134.4 63.7559 134.249 63.5098C134.099 63.2592 133.901 63.0632 133.654 62.9219C133.408 62.7761 133.105 62.7032 132.745 62.7032C132.426 62.7032 132.148 62.7579 131.911 62.8672C131.679 62.9766 131.481 63.1247 131.317 63.3116C131.152 63.4939 131.018 63.7035 130.913 63.9405C130.813 64.1729 130.738 64.4144 130.688 64.6651V66.3126C130.761 66.6316 130.879 66.9392 131.043 67.2354C131.212 67.5271 131.435 67.7663 131.713 67.9532C131.996 68.14 132.344 68.2335 132.759 68.2335C133.101 68.2335 133.392 68.1651 133.634 68.0284C133.88 67.8871 134.078 67.6934 134.229 67.4473C134.384 67.2012 134.498 66.9164 134.57 66.5928C134.643 66.2693 134.68 65.9229 134.68 65.5538ZM142.076 67.461V61.7735H143.348V69.17H142.138L142.076 67.461ZM142.316 65.9024L142.842 65.8887C142.842 66.3809 142.79 66.8366 142.685 67.2559C142.584 67.6706 142.42 68.0307 142.193 68.336C141.965 68.6413 141.666 68.8806 141.297 69.0538C140.928 69.2224 140.479 69.3067 139.95 69.3067C139.59 69.3067 139.26 69.2543 138.959 69.1495C138.663 69.0447 138.408 68.8829 138.193 68.6641C137.979 68.4454 137.813 68.1605 137.694 67.8096C137.581 67.4587 137.524 67.0372 137.524 66.545V61.7735H138.788V66.5587C138.788 66.8913 138.825 67.1671 138.898 67.3858C138.975 67.6 139.078 67.7709 139.205 67.8985C139.337 68.0215 139.483 68.1081 139.643 68.1583C139.807 68.2084 139.975 68.2335 140.149 68.2335C140.686 68.2335 141.112 68.1309 141.427 67.9258C141.741 67.7162 141.967 67.4359 142.104 67.085C142.245 66.7296 142.316 66.3353 142.316 65.9024ZM149.582 67.2081C149.582 67.0258 149.541 66.8572 149.459 66.7022C149.382 66.5427 149.22 66.3991 148.974 66.2715C148.732 66.1394 148.368 66.0255 147.88 65.9297C147.47 65.8432 147.098 65.7406 146.766 65.6221C146.438 65.5036 146.157 65.3601 145.925 65.1915C145.697 65.0228 145.522 64.8246 145.399 64.5967C145.276 64.3689 145.214 64.1023 145.214 63.7969C145.214 63.5053 145.278 63.2296 145.405 62.9698C145.538 62.71 145.722 62.4799 145.959 62.2794C146.201 62.0788 146.49 61.9216 146.827 61.8077C147.165 61.6937 147.541 61.6368 147.955 61.6368C148.548 61.6368 149.054 61.7416 149.473 61.9512C149.892 62.1609 150.213 62.4411 150.437 62.7921C150.66 63.1384 150.772 63.5235 150.772 63.9473H149.507C149.507 63.7422 149.445 63.544 149.322 63.3526C149.204 63.1566 149.028 62.9949 148.796 62.8672C148.568 62.7396 148.288 62.6758 147.955 62.6758C147.604 62.6758 147.319 62.7305 147.101 62.8399C146.887 62.9447 146.729 63.0792 146.629 63.2432C146.533 63.4073 146.485 63.5805 146.485 63.7628C146.485 63.8995 146.508 64.0225 146.554 64.1319C146.604 64.2367 146.691 64.3347 146.814 64.4258C146.937 64.5124 147.11 64.5945 147.333 64.6719C147.556 64.7494 147.841 64.8269 148.188 64.9044C148.794 65.0411 149.293 65.2051 149.685 65.3965C150.077 65.588 150.368 65.8227 150.56 66.1006C150.751 66.3786 150.847 66.7159 150.847 67.1124C150.847 67.4359 150.778 67.7322 150.642 68.001C150.51 68.2699 150.316 68.5023 150.061 68.6983C149.81 68.8897 149.509 69.0401 149.158 69.1495C148.812 69.2543 148.422 69.3067 147.989 69.3067C147.338 69.3067 146.786 69.1905 146.335 68.9581C145.884 68.7256 145.542 68.4249 145.31 68.0557C145.077 67.6866 144.961 67.2969 144.961 66.8868H146.233C146.251 67.2331 146.351 67.5089 146.533 67.7139C146.716 67.9144 146.939 68.058 147.203 68.1446C147.468 68.2266 147.73 68.2676 147.989 68.2676C148.336 68.2676 148.625 68.2221 148.858 68.1309C149.095 68.0398 149.275 67.9144 149.398 67.7549C149.521 67.5954 149.582 67.4131 149.582 67.2081ZM153.882 61.7735V69.17H152.61V61.7735H153.882ZM152.515 59.8116C152.515 59.6065 152.576 59.4333 152.699 59.2921C152.827 59.1508 153.014 59.0801 153.26 59.0801C153.501 59.0801 153.686 59.1508 153.814 59.2921C153.946 59.4333 154.012 59.6065 154.012 59.8116C154.012 60.0075 153.946 60.1762 153.814 60.3174C153.686 60.4542 153.501 60.5225 153.26 60.5225C153.014 60.5225 152.827 60.4542 152.699 60.3174C152.576 60.1762 152.515 60.0075 152.515 59.8116ZM157.177 63.3526V69.17H155.912V61.7735H157.109L157.177 63.3526ZM156.876 65.1915L156.35 65.171C156.354 64.6651 156.429 64.198 156.575 63.7696C156.721 63.3366 156.926 62.9607 157.191 62.6417C157.455 62.3227 157.769 62.0766 158.134 61.9034C158.503 61.7256 158.911 61.6368 159.358 61.6368C159.722 61.6368 160.05 61.6869 160.342 61.7872C160.634 61.8829 160.882 62.0378 161.087 62.252C161.297 62.4662 161.456 62.7442 161.566 63.086C161.675 63.4232 161.73 63.8357 161.73 64.3233V69.17H160.458V64.3096C160.458 63.9223 160.401 63.6124 160.287 63.3799C160.173 63.143 160.007 62.9721 159.788 62.8672C159.569 62.7579 159.301 62.7032 158.982 62.7032C158.667 62.7032 158.38 62.7693 158.12 62.9014C157.865 63.0336 157.644 63.2159 157.457 63.4483C157.275 63.6807 157.131 63.9473 157.027 64.2481C156.926 64.5443 156.876 64.8588 156.876 65.1915ZM166.72 69.3067C166.205 69.3067 165.738 69.2201 165.318 69.0469C164.904 68.8692 164.546 68.6208 164.245 68.3018C163.949 67.9828 163.721 67.6046 163.562 67.1671C163.402 66.7296 163.322 66.251 163.322 65.7315V65.4444C163.322 64.8428 163.411 64.3074 163.589 63.838C163.767 63.364 164.008 62.963 164.314 62.6348C164.619 62.3067 164.965 62.0583 165.353 61.8897C165.74 61.7211 166.141 61.6368 166.556 61.6368C167.084 61.6368 167.54 61.7279 167.923 61.9102C168.31 62.0925 168.627 62.3477 168.873 62.6758C169.119 62.9994 169.302 63.3822 169.42 63.8243C169.539 64.2618 169.598 64.7403 169.598 65.2598V65.8272H164.074V64.795H168.333V64.6993C168.315 64.3712 168.247 64.0521 168.128 63.7422C168.014 63.4324 167.832 63.1771 167.581 62.9766C167.331 62.7761 166.989 62.6758 166.556 62.6758C166.269 62.6758 166.004 62.7374 165.763 62.8604C165.521 62.9789 165.314 63.1566 165.141 63.3936C164.968 63.6306 164.833 63.92 164.737 64.2618C164.642 64.6036 164.594 64.9978 164.594 65.4444V65.7315C164.594 66.0824 164.642 66.4128 164.737 66.7227C164.838 67.0281 164.981 67.2969 165.168 67.5294C165.36 67.7618 165.59 67.9441 165.859 68.0762C166.132 68.2084 166.442 68.2745 166.788 68.2745C167.235 68.2745 167.613 68.1833 167.923 68.001C168.233 67.8187 168.504 67.5749 168.736 67.2696L169.502 67.878C169.343 68.1195 169.14 68.3497 168.894 68.5684C168.648 68.7872 168.345 68.9649 167.985 69.1016C167.629 69.2383 167.207 69.3067 166.72 69.3067ZM175.381 67.2081C175.381 67.0258 175.34 66.8572 175.258 66.7022C175.18 66.5427 175.019 66.3991 174.773 66.2715C174.531 66.1394 174.166 66.0255 173.679 65.9297C173.269 65.8432 172.897 65.7406 172.565 65.6221C172.236 65.5036 171.956 65.3601 171.724 65.1915C171.496 65.0228 171.32 64.8246 171.197 64.5967C171.074 64.3689 171.013 64.1023 171.013 63.7969C171.013 63.5053 171.077 63.2296 171.204 62.9698C171.336 62.71 171.521 62.4799 171.758 62.2794C171.999 62.0788 172.289 61.9216 172.626 61.8077C172.963 61.6937 173.339 61.6368 173.754 61.6368C174.346 61.6368 174.852 61.7416 175.272 61.9512C175.691 62.1609 176.012 62.4411 176.235 62.7921C176.459 63.1384 176.57 63.5235 176.57 63.9473H175.306C175.306 63.7422 175.244 63.544 175.121 63.3526C175.003 63.1566 174.827 62.9949 174.595 62.8672C174.367 62.7396 174.087 62.6758 173.754 62.6758C173.403 62.6758 173.118 62.7305 172.9 62.8399C172.685 62.9447 172.528 63.0792 172.428 63.2432C172.332 63.4073 172.284 63.5805 172.284 63.7628C172.284 63.8995 172.307 64.0225 172.353 64.1319C172.403 64.2367 172.489 64.3347 172.612 64.4258C172.735 64.5124 172.909 64.5945 173.132 64.6719C173.355 64.7494 173.64 64.8269 173.986 64.9044C174.593 65.0411 175.092 65.2051 175.484 65.3965C175.875 65.588 176.167 65.8227 176.359 66.1006C176.55 66.3786 176.646 66.7159 176.646 67.1124C176.646 67.4359 176.577 67.7322 176.441 68.001C176.308 68.2699 176.115 68.5023 175.86 68.6983C175.609 68.8897 175.308 69.0401 174.957 69.1495C174.611 69.2543 174.221 69.3067 173.788 69.3067C173.137 69.3067 172.585 69.1905 172.134 68.9581C171.683 68.7256 171.341 68.4249 171.109 68.0557C170.876 67.6866 170.76 67.2969 170.76 66.8868H172.031C172.05 67.2331 172.15 67.5089 172.332 67.7139C172.514 67.9144 172.738 68.058 173.002 68.1446C173.266 68.2266 173.528 68.2676 173.788 68.2676C174.135 68.2676 174.424 68.2221 174.656 68.1309C174.893 68.0398 175.073 67.9144 175.196 67.7549C175.319 67.5954 175.381 67.4131 175.381 67.2081ZM182.613 67.2081C182.613 67.0258 182.572 66.8572 182.49 66.7022C182.413 66.5427 182.251 66.3991 182.005 66.2715C181.763 66.1394 181.399 66.0255 180.911 65.9297C180.501 65.8432 180.13 65.7406 179.797 65.6221C179.469 65.5036 179.189 65.3601 178.956 65.1915C178.728 65.0228 178.553 64.8246 178.43 64.5967C178.307 64.3689 178.245 64.1023 178.245 63.7969C178.245 63.5053 178.309 63.2296 178.437 62.9698C178.569 62.71 178.753 62.4799 178.99 62.2794C179.232 62.0788 179.521 61.9216 179.859 61.8077C180.196 61.6937 180.572 61.6368 180.986 61.6368C181.579 61.6368 182.085 61.7416 182.504 61.9512C182.923 62.1609 183.245 62.4411 183.468 62.7921C183.691 63.1384 183.803 63.5235 183.803 63.9473H182.538C182.538 63.7422 182.477 63.544 182.354 63.3526C182.235 63.1566 182.06 62.9949 181.827 62.8672C181.599 62.7396 181.319 62.6758 180.986 62.6758C180.636 62.6758 180.351 62.7305 180.132 62.8399C179.918 62.9447 179.761 63.0792 179.66 63.2432C179.565 63.4073 179.517 63.5805 179.517 63.7628C179.517 63.8995 179.54 64.0225 179.585 64.1319C179.635 64.2367 179.722 64.3347 179.845 64.4258C179.968 64.5124 180.141 64.5945 180.364 64.6719C180.588 64.7494 180.873 64.8269 181.219 64.9044C181.825 65.0411 182.324 65.2051 182.716 65.3965C183.108 65.588 183.4 65.8227 183.591 66.1006C183.782 66.3786 183.878 66.7159 183.878 67.1124C183.878 67.4359 183.81 67.7322 183.673 68.001C183.541 68.2699 183.347 68.5023 183.092 68.6983C182.841 68.8897 182.541 69.0401 182.19 69.1495C181.843 69.2543 181.454 69.3067 181.021 69.3067C180.369 69.3067 179.818 69.1905 179.366 68.9581C178.915 68.7256 178.573 68.4249 178.341 68.0557C178.109 67.6866 177.992 67.2969 177.992 66.8868H179.264C179.282 67.2331 179.382 67.5089 179.565 67.7139C179.747 67.9144 179.97 68.058 180.235 68.1446C180.499 68.2266 180.761 68.2676 181.021 68.2676C181.367 68.2676 181.656 68.2221 181.889 68.1309C182.126 68.0398 182.306 67.9144 182.429 67.7549C182.552 67.5954 182.613 67.4131 182.613 67.2081ZM193.318 67.2081C193.318 67.0258 193.277 66.8572 193.195 66.7022C193.118 66.5427 192.956 66.3991 192.71 66.2715C192.469 66.1394 192.104 66.0255 191.616 65.9297C191.206 65.8432 190.835 65.7406 190.502 65.6221C190.174 65.5036 189.894 65.3601 189.661 65.1915C189.433 65.0228 189.258 64.8246 189.135 64.5967C189.012 64.3689 188.95 64.1023 188.95 63.7969C188.95 63.5053 189.014 63.2296 189.142 62.9698C189.274 62.71 189.458 62.4799 189.695 62.2794C189.937 62.0788 190.226 61.9216 190.564 61.8077C190.901 61.6937 191.277 61.6368 191.692 61.6368C192.284 61.6368 192.79 61.7416 193.209 61.9512C193.628 62.1609 193.95 62.4411 194.173 62.7921C194.396 63.1384 194.508 63.5235 194.508 63.9473H193.243C193.243 63.7422 193.182 63.544 193.059 63.3526C192.94 63.1566 192.765 62.9949 192.532 62.8672C192.304 62.7396 192.024 62.6758 191.692 62.6758C191.341 62.6758 191.056 62.7305 190.837 62.8399C190.623 62.9447 190.466 63.0792 190.365 63.2432C190.27 63.4073 190.222 63.5805 190.222 63.7628C190.222 63.8995 190.245 64.0225 190.29 64.1319C190.34 64.2367 190.427 64.3347 190.55 64.4258C190.673 64.5124 190.846 64.5945 191.069 64.6719C191.293 64.7494 191.578 64.8269 191.924 64.9044C192.53 65.0411 193.029 65.2051 193.421 65.3965C193.813 65.588 194.105 65.8227 194.296 66.1006C194.487 66.3786 194.583 66.7159 194.583 67.1124C194.583 67.4359 194.515 67.7322 194.378 68.001C194.246 68.2699 194.052 68.5023 193.797 68.6983C193.546 68.8897 193.246 69.0401 192.895 69.1495C192.548 69.2543 192.159 69.3067 191.726 69.3067C191.074 69.3067 190.523 69.1905 190.071 68.9581C189.62 68.7256 189.278 68.4249 189.046 68.0557C188.814 67.6866 188.697 67.2969 188.697 66.8868H189.969C189.987 67.2331 190.087 67.5089 190.27 67.7139C190.452 67.9144 190.675 68.058 190.94 68.1446C191.204 68.2266 191.466 68.2676 191.726 68.2676C192.072 68.2676 192.361 68.2221 192.594 68.1309C192.831 68.0398 193.011 67.9144 193.134 67.7549C193.257 67.5954 193.318 67.4131 193.318 67.2081ZM199.314 69.3067C198.799 69.3067 198.332 69.2201 197.912 69.0469C197.498 68.8692 197.14 68.6208 196.839 68.3018C196.543 67.9828 196.315 67.6046 196.155 67.1671C195.996 66.7296 195.916 66.251 195.916 65.7315V65.4444C195.916 64.8428 196.005 64.3074 196.183 63.838C196.36 63.364 196.602 62.963 196.907 62.6348C197.213 62.3067 197.559 62.0583 197.946 61.8897C198.334 61.7211 198.735 61.6368 199.15 61.6368C199.678 61.6368 200.134 61.7279 200.517 61.9102C200.904 62.0925 201.221 62.3477 201.467 62.6758C201.713 62.9994 201.895 63.3822 202.014 63.8243C202.132 64.2618 202.192 64.7403 202.192 65.2598V65.8272H196.668V64.795H200.927V64.6993C200.909 64.3712 200.84 64.0521 200.722 63.7422C200.608 63.4324 200.426 63.1771 200.175 62.9766C199.924 62.7761 199.582 62.6758 199.15 62.6758C198.862 62.6758 198.598 62.7374 198.357 62.8604C198.115 62.9789 197.908 63.1566 197.735 63.3936C197.561 63.6306 197.427 63.92 197.331 64.2618C197.235 64.6036 197.188 64.9978 197.188 65.4444V65.7315C197.188 66.0824 197.235 66.4128 197.331 66.7227C197.431 67.0281 197.575 67.2969 197.762 67.5294C197.953 67.7618 198.183 67.9441 198.452 68.0762C198.726 68.2084 199.036 68.2745 199.382 68.2745C199.829 68.2745 200.207 68.1833 200.517 68.001C200.827 67.8187 201.098 67.5749 201.33 67.2696L202.096 67.878C201.936 68.1195 201.734 68.3497 201.487 68.5684C201.241 68.7872 200.938 68.9649 200.578 69.1016C200.223 69.2383 199.801 69.3067 199.314 69.3067ZM204.933 62.9356V69.17H203.668V61.7735H204.899L204.933 62.9356ZM207.243 61.7325L207.236 62.9083C207.132 62.8855 207.031 62.8718 206.936 62.8672C206.845 62.8581 206.74 62.8536 206.621 62.8536C206.33 62.8536 206.072 62.8991 205.849 62.9903C205.625 63.0814 205.436 63.209 205.281 63.3731C205.126 63.5372 205.003 63.7331 204.912 63.961C204.826 64.1843 204.769 64.4304 204.741 64.6993L204.386 64.9044C204.386 64.4577 204.429 64.0385 204.516 63.6465C204.607 63.2546 204.746 62.9083 204.933 62.6075C205.12 62.3021 205.357 62.0652 205.644 61.8965C205.935 61.7234 206.282 61.6368 206.683 61.6368C206.774 61.6368 206.879 61.6482 206.997 61.671C207.116 61.6892 207.198 61.7097 207.243 61.7325ZM210.784 68.0284L212.808 61.7735H214.1L211.441 69.17H210.593L210.784 68.0284ZM209.096 61.7735L211.181 68.0626L211.324 69.17H210.477L207.797 61.7735H209.096ZM216.691 61.7735V69.17H215.419V61.7735H216.691ZM215.323 59.8116C215.323 59.6065 215.385 59.4333 215.508 59.2921C215.636 59.1508 215.822 59.0801 216.068 59.0801C216.31 59.0801 216.495 59.1508 216.622 59.2921C216.754 59.4333 216.82 59.6065 216.82 59.8116C216.82 60.0075 216.754 60.1762 216.622 60.3174C216.495 60.4542 216.31 60.5225 216.068 60.5225C215.822 60.5225 215.636 60.4542 215.508 60.3174C215.385 60.1762 215.323 60.0075 215.323 59.8116ZM221.681 68.2676C221.982 68.2676 222.26 68.2061 222.515 68.0831C222.77 67.96 222.98 67.7914 223.144 67.5772C223.308 67.3585 223.401 67.1101 223.424 66.8321H224.627C224.604 67.2696 224.456 67.6775 224.183 68.0557C223.914 68.4294 223.561 68.7325 223.123 68.9649C222.686 69.1928 222.205 69.3067 221.681 69.3067C221.125 69.3067 220.639 69.2087 220.225 69.0128C219.815 68.8168 219.473 68.5479 219.199 68.2061C218.93 67.8643 218.728 67.4724 218.591 67.0303C218.459 66.5837 218.393 66.112 218.393 65.6153V65.3282C218.393 64.8314 218.459 64.362 218.591 63.92C218.728 63.4734 218.93 63.0792 219.199 62.7374C219.473 62.3956 219.815 62.1267 220.225 61.9307C220.639 61.7348 221.125 61.6368 221.681 61.6368C222.26 61.6368 222.765 61.7553 223.198 61.9922C223.631 62.2247 223.971 62.5437 224.217 62.9493C224.468 63.3503 224.604 63.8061 224.627 64.3165H223.424C223.401 64.0111 223.315 63.7354 223.164 63.4893C223.018 63.2432 222.818 63.0473 222.563 62.9014C222.312 62.751 222.018 62.6758 221.681 62.6758C221.293 62.6758 220.968 62.7533 220.703 62.9083C220.443 63.0587 220.236 63.2637 220.081 63.5235C219.931 63.7787 219.821 64.0635 219.753 64.378C219.689 64.6879 219.657 65.0046 219.657 65.3282V65.6153C219.657 65.9389 219.689 66.2579 219.753 66.5723C219.817 66.8868 219.924 67.1716 220.074 67.4268C220.229 67.682 220.437 67.8871 220.696 68.0421C220.961 68.1924 221.289 68.2676 221.681 68.2676ZM229.118 69.3067C228.603 69.3067 228.136 69.2201 227.717 69.0469C227.302 68.8692 226.944 68.6208 226.644 68.3018C226.347 67.9828 226.12 67.6046 225.96 67.1671C225.801 66.7296 225.721 66.251 225.721 65.7315V65.4444C225.721 64.8428 225.81 64.3074 225.987 63.838C226.165 63.364 226.407 62.963 226.712 62.6348C227.017 62.3067 227.364 62.0583 227.751 61.8897C228.138 61.7211 228.54 61.6368 228.954 61.6368C229.483 61.6368 229.939 61.7279 230.321 61.9102C230.709 62.0925 231.026 62.3477 231.272 62.6758C231.518 62.9994 231.7 63.3822 231.818 63.8243C231.937 64.2618 231.996 64.7403 231.996 65.2598V65.8272H226.473V64.795H230.732V64.6993C230.713 64.3712 230.645 64.0521 230.527 63.7422C230.413 63.4324 230.23 63.1771 229.98 62.9766C229.729 62.7761 229.387 62.6758 228.954 62.6758C228.667 62.6758 228.403 62.7374 228.161 62.8604C227.92 62.9789 227.712 63.1566 227.539 63.3936C227.366 63.6306 227.232 63.92 227.136 64.2618C227.04 64.6036 226.992 64.9978 226.992 65.4444V65.7315C226.992 66.0824 227.04 66.4128 227.136 66.7227C227.236 67.0281 227.38 67.2969 227.567 67.5294C227.758 67.7618 227.988 67.9441 228.257 68.0762C228.53 68.2084 228.84 68.2745 229.187 68.2745C229.633 68.2745 230.012 68.1833 230.321 68.001C230.631 67.8187 230.902 67.5749 231.135 67.2696L231.901 67.878C231.741 68.1195 231.538 68.3497 231.292 68.5684C231.046 68.7872 230.743 68.9649 230.383 69.1016C230.027 69.2383 229.606 69.3067 229.118 69.3067Z" fill="white"/>
</svg>
