<svg width="35" height="36" viewBox="0 0 35 36" fill="none" xmlns="http://www.w3.org/2000/svg">
<rect x="1" y="1.97998" width="33" height="33" rx="16.5" fill="#0D83FD"/>
<rect x="1" y="1.97998" width="33" height="33" rx="16.5" stroke="white" stroke-width="2"/>
<path d="M12.1008 13.9253V22.48H10.5481V15.7358L8.49142 16.4155V15.1616L11.925 13.9253H12.1008ZM20.7492 21.2612V22.48H14.9719V21.437L17.7434 18.4429C18.0324 18.1147 18.261 17.8296 18.4289 17.5874C18.5969 17.3452 18.716 17.1265 18.7863 16.9312C18.8606 16.7319 18.8977 16.5425 18.8977 16.3628C18.8977 16.1011 18.8508 15.8726 18.757 15.6772C18.6633 15.478 18.5266 15.3237 18.3469 15.2144C18.1711 15.105 17.9543 15.0503 17.6965 15.0503C17.4113 15.0503 17.1672 15.1167 16.9641 15.2495C16.7649 15.3784 16.6125 15.5581 16.507 15.7886C16.4055 16.019 16.3547 16.2827 16.3547 16.5796H14.802C14.802 16.0757 14.9192 15.6167 15.1535 15.2026C15.3879 14.7847 15.7238 14.4507 16.1613 14.2007C16.5988 13.9507 17.1184 13.8257 17.7199 13.8257C18.3059 13.8257 18.802 13.9233 19.2082 14.1187C19.6145 14.3101 19.9231 14.5835 20.134 14.939C20.3449 15.2944 20.4504 15.7183 20.4504 16.2104C20.4504 16.4839 20.4055 16.7534 20.3156 17.019C20.2258 17.2847 20.0988 17.5483 19.9348 17.8101C19.7746 18.0679 19.5832 18.3296 19.3606 18.5952C19.1379 18.8608 18.8899 19.1323 18.6164 19.4097L16.9524 21.2612H20.7492ZM27.4172 17.7632V19.1401H21.5695V17.7632H27.4172ZM25.2375 15.4136V21.6245H23.7551V15.4136H25.2375Z" fill="white"/>
</svg>
