<svg width="16" height="17" viewBox="0 0 16 17" fill="none" xmlns="http://www.w3.org/2000/svg">
<g clip-path="url(#clip0_302_575)">
<path d="M16 8.21349C16 6.75571 15.6444 5.41349 14.9333 4.18682C14.2222 2.96016 13.2533 1.98238 12.0267 1.25349C10.8 0.5246 9.45778 0.160156 8 0.160156C6.54222 0.160156 5.2 0.5246 3.97333 1.25349C2.74667 1.98238 1.77778 2.96016 1.06667 4.18682C0.355556 5.41349 0 6.75571 0 8.21349C0 9.52905 0.293333 10.7557 0.88 11.8935C1.46667 13.0313 2.27556 13.9735 3.30667 14.7202C4.33778 15.4668 5.49333 15.9468 6.77333 16.1602V10.5602H4.69333V8.21349H6.77333V6.45349C6.77333 5.45793 7.04 4.6846 7.57333 4.13349C8.10667 3.58238 8.83556 3.30682 9.76 3.30682C10.1156 3.30682 10.5244 3.3246 10.9867 3.36016L11.5733 3.46682V5.44016H10.56C10.0978 5.44016 9.76 5.55571 9.54667 5.78682C9.33333 6.01793 9.22667 6.32905 9.22667 6.72016V8.21349H11.4667L11.0933 10.5602H9.22667V16.1602C10.5067 15.9468 11.6622 15.4668 12.6933 14.7202C13.7244 13.9735 14.5333 13.0313 15.12 11.8935C15.7067 10.7557 16 9.52905 16 8.21349Z" fill="black"/>
</g>
<defs>
<clipPath id="clip0_302_575">
<rect width="16" height="16" fill="white" transform="matrix(1 0 0 -1 0 16.1602)"/>
</clipPath>
</defs>
</svg>
