<svg width="24" height="25" viewBox="0 0 24 25" fill="none" xmlns="http://www.w3.org/2000/svg">
<g clip-path="url(#clip0_302_182)">
<path d="M16.48 1.71995C16.9066 1.71995 17.2666 1.86662 17.56 2.15995C17.8533 2.45329 18 2.78662 18 3.15995V21.16C18 21.5866 17.8533 21.9466 17.56 22.24C17.2666 22.5333 16.9066 22.68 16.48 22.68H7.51998C7.09331 22.68 6.73331 22.5333 6.43998 22.24C6.14665 21.9466 5.99998 21.5866 5.99998 21.16V3.15995C5.99998 2.78662 6.14665 2.45329 6.43998 2.15995C6.73331 1.86662 7.09331 1.71995 7.51998 1.71995H16.48ZM7.51998 0.199951C6.66665 0.199951 5.94665 0.493284 5.35998 1.07995C4.77331 1.66662 4.47998 2.38662 4.47998 3.23995V21.16C4.47998 22.0133 4.77331 22.7333 5.35998 23.32C5.94665 23.9066 6.66665 24.2 7.51998 24.2H16.48C17.3333 24.2 18.0533 23.9066 18.64 23.32C19.2266 22.7333 19.52 22.0133 19.52 21.16V3.15995C19.52 2.35995 19.2266 1.66662 18.64 1.07995C18.0533 0.493284 17.3333 0.199951 16.48 0.199951H7.51998ZM12 21.16C12.4266 21.16 12.7866 21.0266 13.08 20.76C13.3733 20.4933 13.52 20.1466 13.52 19.72C13.52 19.2933 13.3733 18.9333 13.08 18.64C12.7866 18.3466 12.4266 18.2 12 18.2C11.5733 18.2 11.2133 18.3466 10.92 18.64C10.6266 18.9333 10.48 19.2933 10.48 19.72C10.48 20.1466 10.6266 20.4933 10.92 20.76C11.2133 21.0266 11.5733 21.16 12 21.16Z" fill="#0D83FD"/>
</g>
<defs>
<clipPath id="clip0_302_182">
<rect width="24" height="24" fill="white" transform="matrix(1 0 0 -1 0 24.2)"/>
</clipPath>
</defs>
</svg>
