<svg width="24" height="25" viewBox="0 0 24 25" fill="none" xmlns="http://www.w3.org/2000/svg">
<g clip-path="url(#clip0_302_51)">
<path d="M14.4799 2.25998L11.9999 0.97998L9.51994 2.25998L6.71994 2.65998L5.43994 5.21998L3.43994 7.21998L3.91994 9.93998L3.43994 12.74L5.43994 14.74L6.71994 17.3L9.51994 17.7L11.9999 18.98L14.4799 17.7L17.2799 17.3L18.5599 14.74L20.5599 12.74L20.0799 9.93998L20.5599 7.21998L18.5599 5.21998L17.2799 2.65998L14.4799 2.25998ZM16.3199 4.09998L17.3599 6.09998L18.9599 7.69998L18.5599 9.93998L18.9599 12.26L17.3599 13.86L16.3199 15.86L13.9999 16.26L11.9999 17.3L9.99994 16.26L7.67994 15.86L6.63994 13.86L5.03994 12.26L5.43994 9.93998L5.03994 7.69998L6.63994 6.09998L7.67994 4.09998L9.99994 3.69998L11.9999 2.65998L13.9999 3.69998L16.3199 4.09998ZM5.99994 18.66V24.98L11.9999 23.46L17.9999 24.98V18.66L14.9599 19.14L11.9999 20.66L9.03994 19.14L5.99994 18.66Z" fill="#0D83FD"/>
</g>
<defs>
<clipPath id="clip0_302_51">
<rect width="24" height="24" fill="white" transform="matrix(1 0 0 -1 0 24.98)"/>
</clipPath>
</defs>
</svg>
