<svg width="24" height="25" viewBox="0 0 24 25" fill="none" xmlns="http://www.w3.org/2000/svg">
<g clip-path="url(#clip0_302_172)">
<path d="M24 12.6999C23.84 12.4333 23.6533 12.1399 23.44 11.8199C23.0133 11.1266 22.5067 10.4599 21.92 9.81994C21.1733 8.85994 20.3467 8.03327 19.44 7.33994C18.3733 6.48661 17.28 5.81994 16.16 5.33994C14.7733 4.75327 13.3867 4.45994 12 4.45994C10.6133 4.45994 9.22667 4.75327 7.84 5.33994C6.72 5.81994 5.62667 6.48661 4.56 7.33994C3.70667 8.03327 2.88 8.85994 2.08 9.81994C1.49333 10.4599 0.986667 11.1266 0.56 11.8199L0 12.6999L0.56 13.5799C0.986667 14.2733 1.49333 14.9399 2.08 15.5799C2.88 16.5399 3.70667 17.3666 4.56 18.0599C5.62667 18.9133 6.72 19.5799 7.84 20.0599C9.22667 20.6466 10.6133 20.9399 12 20.9399C13.3867 20.9399 14.7733 20.6466 16.16 20.0599C17.28 19.5799 18.3733 18.9133 19.44 18.0599C20.3467 17.3666 21.1733 16.5399 21.92 15.5799C22.5067 14.9399 23.0133 14.2733 23.44 13.5799L24 12.6999ZM1.76 12.6999C2.50667 11.5799 3.33333 10.5666 4.24 9.65994C5.36 8.53994 6.50667 7.68661 7.68 7.09994C9.06667 6.35328 10.5067 5.97994 12 5.97994C13.4933 5.97994 14.9333 6.35328 16.32 7.09994C17.4933 7.68661 18.64 8.53994 19.76 9.65994C20.6667 10.5666 21.4933 11.5799 22.24 12.6999L21.92 13.0999C21.28 14.0599 20.56 14.9399 19.76 15.7399C18.64 16.8599 17.4933 17.7133 16.32 18.2999C14.9333 19.0466 13.4933 19.4199 12 19.4199C10.5067 19.4199 9.06667 19.0466 7.68 18.2999C6.50667 17.7133 5.36 16.8599 4.24 15.7399C3.33333 14.8333 2.50667 13.8199 1.76 12.6999ZM12 8.93994C10.9867 8.93994 10.1067 9.31328 9.36 10.0599C8.61333 10.8066 8.24 11.6866 8.24 12.6999C8.24 13.7133 8.61333 14.5933 9.36 15.3399C10.1067 16.0866 10.9867 16.4599 12 16.4599C13.0133 16.4599 13.8933 16.0866 14.64 15.3399C15.3867 14.5933 15.76 13.7133 15.76 12.6999C15.76 11.6866 15.3867 10.8066 14.64 10.0599C13.8933 9.31328 13.0133 8.93994 12 8.93994ZM6.72 12.6999C6.72 11.7399 6.96 10.8599 7.44 10.0599C7.92 9.25994 8.56 8.61994 9.36 8.13994C10.16 7.65994 11.04 7.41994 12 7.41994C12.96 7.41994 13.84 7.65994 14.64 8.13994C15.44 8.61994 16.08 9.25994 16.56 10.0599C17.04 10.8599 17.28 11.7399 17.28 12.6999C17.28 13.6599 17.04 14.5399 16.56 15.3399C16.08 16.1399 15.44 16.7799 14.64 17.2599C13.84 17.7399 12.96 17.9799 12 17.9799C11.04 17.9799 10.16 17.7399 9.36 17.2599C8.56 16.7799 7.92 16.1399 7.44 15.3399C6.96 14.5399 6.72 13.6599 6.72 12.6999Z" fill="#0D83FD"/>
</g>
<defs>
<clipPath id="clip0_302_172">
<rect width="24" height="24" fill="white" transform="matrix(1 0 0 -1 0 24.7)"/>
</clipPath>
</defs>
</svg>
