<svg width="28" height="29" viewBox="0 0 28 29" fill="none" xmlns="http://www.w3.org/2000/svg">
<g clip-path="url(#clip0_302_331)">
<path d="M10.5467 4.14307C10.6711 4.20529 10.8111 4.28307 10.9667 4.3764C11.1222 4.46973 11.2311 4.60973 11.2933 4.7964L17.5467 21.7831L20.16 14.4097C20.2222 14.2231 20.3311 14.0831 20.4867 13.9897C20.6422 13.8964 20.8133 13.8497 21 13.8497H27.16C27.4089 13.8497 27.6111 13.9275 27.7667 14.0831C27.9222 14.2386 28 14.4408 28 14.6897C28 14.9386 27.9222 15.1408 27.7667 15.2964C27.6111 15.452 27.4089 15.5297 27.16 15.5297H21.6533L18.2933 24.5831C18.2311 24.7697 18.1222 24.9097 17.9667 25.0031C17.8111 25.0964 17.6556 25.1431 17.5 25.1431C17.3444 25.1431 17.1889 25.0964 17.0333 25.0031C16.8778 24.9097 16.7689 24.7697 16.7067 24.5831L10.5467 7.5964L7.84 14.9697C7.77778 15.1564 7.66889 15.2964 7.51333 15.3897C7.35778 15.4831 7.18667 15.5297 7 15.5297H0.84C0.591111 15.5297 0.388889 15.452 0.233333 15.2964C0.0777778 15.1408 0 14.9386 0 14.6897C0 14.4408 0.0777778 14.2386 0.233333 14.0831C0.388889 13.9275 0.591111 13.8497 0.84 13.8497H6.34667L9.70667 4.7964C9.76889 4.60973 9.87778 4.46973 10.0333 4.3764C10.1889 4.28307 10.3289 4.20529 10.4533 4.14307H10.5467Z" fill="#0D83FD"/>
</g>
<defs>
<clipPath id="clip0_302_331">
<rect width="28" height="28" fill="white" transform="matrix(1 0 0 -1 0 28.6899)"/>
</clipPath>
</defs>
</svg>
