<svg width="28" height="29" viewBox="0 0 28 29" fill="none" xmlns="http://www.w3.org/2000/svg">
<g clip-path="url(#clip0_302_351)">
<path d="M14.0001 0.0795937C14.1868 0.0795937 14.3579 0.126261 14.5134 0.219595C14.669 0.312927 14.7779 0.452927 14.8401 0.639595L15.8668 3.53293H24.5468C24.9823 3.53293 25.3712 3.70404 25.7134 4.04626C26.0557 4.38848 26.2268 4.80848 26.2268 5.30626V17.5329C26.2268 18.0307 26.0557 18.4507 25.7134 18.7929C25.3712 19.1351 24.9823 19.3063 24.5468 19.3063H21.2801L23.6134 26.0263C23.6757 26.2751 23.6445 26.5085 23.5201 26.7263C23.3957 26.944 23.2245 27.084 23.0068 27.1463C22.789 27.2085 22.5712 27.1929 22.3534 27.0996C22.1357 27.0063 21.9957 26.8351 21.9334 26.5863L19.4134 19.3063H14.8401V24.5329C14.8401 24.7818 14.7623 24.9996 14.6068 25.1863C14.4512 25.3729 14.249 25.4663 14.0001 25.4663C13.7512 25.4663 13.549 25.3729 13.3934 25.1863C13.2379 24.9996 13.1601 24.7818 13.1601 24.5329V19.3063H8.58677L6.06677 26.5863C6.00455 26.8351 5.86455 27.0063 5.64677 27.0996C5.42899 27.1929 5.21122 27.2085 4.99344 27.1463C4.77566 27.084 4.60455 26.944 4.4801 26.7263C4.35566 26.5085 4.32455 26.2751 4.38677 26.0263L6.7201 19.3063H3.54677C3.04899 19.3063 2.62899 19.1351 2.28677 18.7929C1.94455 18.4507 1.77344 18.0307 1.77344 17.5329V5.30626C1.77344 4.80848 1.94455 4.38848 2.28677 4.04626C2.62899 3.70404 3.01788 3.53293 3.45344 3.53293H12.1334L13.1601 0.639595C13.2223 0.452927 13.3312 0.312927 13.4868 0.219595C13.6423 0.126261 13.8134 0.0795937 14.0001 0.0795937ZM3.54677 5.30626V17.5329H24.5468V5.30626H3.54677Z" fill="#0D83FD"/>
</g>
<defs>
<clipPath id="clip0_302_351">
<rect width="28" height="28" fill="white" transform="matrix(1 0 0 -1 0 28.0796)"/>
</clipPath>
</defs>
</svg>
