<svg width="28" height="29" viewBox="0 0 28 29" fill="none" xmlns="http://www.w3.org/2000/svg">
<g clip-path="url(#clip0_302_361)">
<path d="M7.0001 19.3063C7.0001 18.8085 7.17122 18.3885 7.51344 18.0463C7.85566 17.704 8.27566 17.5485 8.77344 17.5796C9.27122 17.6107 9.67566 17.7818 9.98677 18.0929C10.2979 18.404 10.4845 18.8085 10.5468 19.3063V21.0796C10.4845 21.5774 10.2979 21.9974 9.98677 22.3396C9.67566 22.6818 9.27122 22.8529 8.77344 22.8529C8.27566 22.8529 7.85566 22.6818 7.51344 22.3396C7.17122 21.9974 7.0001 21.5774 7.0001 21.0796V19.3063ZM17.5468 12.3063C17.5468 11.8085 17.7023 11.3885 18.0134 11.0463C18.3245 10.704 18.729 10.5329 19.2268 10.5329C19.7245 10.5329 20.1445 10.704 20.4868 11.0463C20.829 11.3885 21.0001 11.8085 21.0001 12.3063V21.0796C21.0001 21.5774 20.829 21.9974 20.4868 22.3396C20.1445 22.6818 19.7245 22.8529 19.2268 22.8529C18.729 22.8529 18.309 22.6818 17.9668 22.3396C17.6245 21.9974 17.4534 21.5774 17.4534 21.0796L17.5468 12.3063ZM12.2268 15.8529C12.2268 15.3551 12.3979 14.9351 12.7401 14.5929C13.0823 14.2507 13.5023 14.0796 14.0001 14.0796C14.4979 14.0796 14.9179 14.2507 15.2601 14.5929C15.6023 14.9351 15.7734 15.3551 15.7734 15.8529V21.0796C15.7734 21.5774 15.6023 21.9974 15.2601 22.3396C14.9179 22.6818 14.4979 22.8529 14.0001 22.8529C13.5023 22.8529 13.0823 22.6818 12.7401 22.3396C12.3979 21.9974 12.2268 21.5774 12.2268 21.0796V15.8529ZM7.0001 2.69292H5.22677C4.29344 2.69292 3.48455 3.03514 2.8001 3.71959C2.11566 4.40403 1.77344 5.24403 1.77344 6.23959V24.5329C1.77344 25.5285 2.11566 26.3685 2.8001 27.0529C3.48455 27.7374 4.29344 28.0796 5.22677 28.0796H22.7734C23.7068 28.0796 24.5157 27.7374 25.2001 27.0529C25.8845 26.3685 26.2268 25.5285 26.2268 24.5329V6.23959C26.2268 5.24403 25.8845 4.40403 25.2001 3.71959C24.5157 3.03514 23.7068 2.69292 22.7734 2.69292H21.0001V4.46626H22.7734C23.2712 4.46626 23.6912 4.63737 24.0334 4.97959C24.3757 5.32181 24.5468 5.74181 24.5468 6.23959V24.5329C24.5468 25.0307 24.3757 25.4507 24.0334 25.7929C23.6912 26.1351 23.2712 26.3063 22.7734 26.3063H5.22677C4.72899 26.3063 4.32455 26.1351 4.01344 25.7929C3.70233 25.4507 3.54677 25.0307 3.54677 24.5329V6.23959C3.54677 5.74181 3.70233 5.32181 4.01344 4.97959C4.32455 4.63737 4.72899 4.46626 5.22677 4.46626H7.0001V2.69292ZM16.6134 1.85292C16.8623 1.85292 17.0801 1.9307 17.2668 2.08626C17.4534 2.24181 17.5468 2.44403 17.5468 2.69292V4.46626C17.5468 4.71515 17.4534 4.91737 17.2668 5.07292C17.0801 5.22848 16.8623 5.30626 16.6134 5.30626H11.3868C11.1379 5.30626 10.9357 5.22848 10.7801 5.07292C10.6245 4.91737 10.5157 4.71515 10.4534 4.46626V2.69292C10.5157 2.44403 10.6245 2.24181 10.7801 2.08626C10.9357 1.9307 11.1379 1.85292 11.3868 1.85292H16.6134ZM11.3868 0.0795898C10.6401 0.0795898 10.0179 0.328478 9.5201 0.826256C9.02233 1.32403 8.77344 1.94626 8.77344 2.69292V4.46626C8.77344 5.21292 9.02233 5.83515 9.5201 6.33292C10.0179 6.8307 10.6401 7.07959 11.3868 7.07959H16.6134C17.3601 7.07959 17.9823 6.8307 18.4801 6.33292C18.9779 5.83515 19.2268 5.21292 19.2268 4.46626V2.69292C19.2268 1.94626 18.9779 1.32403 18.4801 0.826256C17.9823 0.328478 17.3601 0.0795898 16.6134 0.0795898H11.3868Z" fill="#0D83FD"/>
</g>
<defs>
<clipPath id="clip0_302_361">
<rect width="28" height="28" fill="white" transform="matrix(1 0 0 -1 0 28.0796)"/>
</clipPath>
</defs>
</svg>
