<svg width="24" height="25" viewBox="0 0 24 25" fill="none" xmlns="http://www.w3.org/2000/svg">
<g clip-path="url(#clip0_302_167)">
<path d="M23.68 0.999922C23.4666 0.786589 23.16 0.613256 22.76 0.479923C22.36 0.346588 21.9466 0.253256 21.52 0.199923C20.5066 0.146589 19.3866 0.253256 18.16 0.519922C16.72 0.786589 15.3066 1.23992 13.92 1.87992C12.32 2.67992 10.84 3.66659 9.47998 4.83992C8.11998 6.01325 6.93331 7.37325 5.91998 8.91992C5.01331 10.2533 4.33331 11.5866 3.87998 12.9199C3.42665 14.2533 3.19998 15.3999 3.19998 16.3599C3.19998 16.8933 3.27998 17.3466 3.43998 17.7199L3.51998 17.8799C2.34665 19.5333 1.22665 21.2399 0.15998 22.9999C-1.95317e-05 23.1599 -0.0533529 23.3466 -1.95317e-05 23.5599C0.0533138 23.7733 0.173314 23.9466 0.35998 24.0799C0.546647 24.2133 0.746647 24.2533 0.95998 24.1999C1.17331 24.1466 1.33331 24.0133 1.43998 23.7999C2.45331 22.1466 3.51998 20.5199 4.63998 18.9199C5.06665 19.1333 5.54665 19.2399 6.07998 19.2399C6.87998 19.1866 7.73331 18.9466 8.63998 18.5199C10.7733 17.5066 12.9333 15.6666 15.12 12.9999L17.44 10.6799C17.5466 10.5199 17.6 10.3333 17.6 10.1199C17.6 9.90659 17.5466 9.71992 17.44 9.55992L16.32 8.43992L18.24 8.75992C18.5066 8.81325 18.7466 8.75992 18.96 8.59992L19.92 7.55992C21.2 6.22659 22.0933 5.25325 22.6 4.63992C23.1066 4.02659 23.4666 3.47992 23.68 2.99992C24 2.35992 24.0533 1.77326 23.84 1.23992C23.84 1.13326 23.7866 1.05326 23.68 0.999922ZM5.59998 17.6399C8.37331 13.9066 11.1733 10.7866 14 8.27992L15.76 10.1199L14 11.9599C11.92 14.4666 9.91998 16.1733 7.99998 17.0799C7.25331 17.4533 6.58665 17.6399 5.99998 17.6399C5.89331 17.6399 5.75998 17.6399 5.59998 17.6399ZM15.76 6.75992C17.7866 5.15992 19.8666 3.87992 22 2.91992L21.44 3.71992C20.96 4.25326 20.1066 5.13326 18.88 6.35992L18.16 7.15992L15.76 6.75992ZM20.8 1.79992C17.8133 3.23992 14.88 5.29325 12 7.95992C9.54665 10.2533 7.11998 12.9999 4.71998 16.1999C4.71998 15.4533 4.90665 14.5466 5.27998 13.4799C5.70665 12.2533 6.31998 11.0266 7.11998 9.79992C8.07998 8.41325 9.19998 7.15992 10.48 6.03992C11.76 4.91992 13.12 4.01326 14.56 3.31992C15.84 2.73326 17.12 2.30659 18.4 2.03992C19.2 1.87992 20 1.79992 20.8 1.79992Z" fill="#0D83FD"/>
</g>
<defs>
<clipPath id="clip0_302_167">
<rect width="24" height="24" fill="white" transform="matrix(1 0 0 -1 0 24.2)"/>
</clipPath>
</defs>
</svg>
