<svg width="16" height="17" viewBox="0 0 16 17" fill="none" xmlns="http://www.w3.org/2000/svg">
<g clip-path="url(#clip0_302_578)">
<path d="M8 0.160156C6.50667 0.160156 5.39556 0.177934 4.66667 0.21349C3.93778 0.249044 3.30667 0.373489 2.77333 0.586823C2.24 0.800156 1.76889 1.11127 1.36 1.52016C0.951111 1.92904 0.64 2.40016 0.426667 2.93349C0.213333 3.46682 0.0888889 4.09793 0.0533333 4.82682C0.0177778 5.55571 0 6.66682 0 8.16016C0 9.65349 0.0177778 10.7646 0.0533333 11.4935C0.0888889 12.2224 0.213333 12.8535 0.426667 13.3868C0.64 13.9202 0.951111 14.3913 1.36 14.8002C1.76889 15.209 2.24 15.5202 2.77333 15.7335C3.30667 15.9468 3.93778 16.0713 4.66667 16.1068C5.39556 16.1424 6.50667 16.1602 8 16.1602C9.49333 16.1602 10.6044 16.1424 11.3333 16.1068C12.0622 16.0713 12.6933 15.9468 13.2267 15.7335C13.76 15.5202 14.2311 15.209 14.64 14.8002C15.0489 14.3913 15.36 13.9202 15.5733 13.3868C15.7867 12.8535 15.9111 12.2224 15.9467 11.4935C15.9822 10.7646 16 9.65349 16 8.16016C16 6.66682 15.9822 5.55571 15.9467 4.82682C15.9111 4.09793 15.7867 3.46682 15.5733 2.93349C15.36 2.40016 15.0489 1.92904 14.64 1.52016C14.2311 1.11127 13.76 0.800156 13.2267 0.586823C12.6933 0.373489 12.0622 0.249044 11.3333 0.21349C10.6044 0.177934 9.49333 0.160156 8 0.160156ZM7.30667 1.60016H8C9.49333 1.60016 10.5778 1.61793 11.2533 1.65349C11.8222 1.68904 12.2933 1.77793 12.6667 1.92016C13.04 2.06238 13.36 2.26682 13.6267 2.53349C13.8933 2.80016 14.0978 3.12016 14.24 3.49349C14.3822 3.86682 14.4711 4.33793 14.5067 4.90682C14.5422 5.58238 14.56 6.66682 14.56 8.16016C14.56 9.65349 14.5422 10.7379 14.5067 11.4135C14.4711 11.9824 14.3822 12.4535 14.24 12.8268C14.0978 13.2002 13.8933 13.5202 13.6267 13.7868C13.36 14.0535 13.04 14.2579 12.6667 14.4002C12.2933 14.5424 11.8222 14.6313 11.2533 14.6668C10.5422 14.7024 9.45778 14.7202 8 14.7202C6.54222 14.7202 5.45778 14.7024 4.74667 14.6668C4.17778 14.6313 3.70667 14.5424 3.33333 14.4002C2.96 14.2579 2.64 14.0535 2.37333 13.7868C2.10667 13.5202 1.90222 13.2002 1.76 12.8268C1.61778 12.4535 1.52889 11.9824 1.49333 11.4135C1.45778 10.7024 1.44 9.60905 1.44 8.13349C1.44 6.65793 1.45778 5.58238 1.49333 4.90682C1.52889 4.33793 1.61778 3.86682 1.76 3.49349C1.90222 3.12016 2.10667 2.80016 2.37333 2.53349C2.64 2.26682 2.96 2.06238 3.33333 1.92016C3.70667 1.77793 4.19556 1.68904 4.8 1.65349C5.40444 1.61793 6.24 1.60016 7.30667 1.60016ZM12.2667 2.93349C12.0178 2.93349 11.7956 3.02238 11.6 3.20016C11.4044 3.37793 11.3067 3.60016 11.3067 3.86682C11.3067 4.13349 11.4044 4.3646 11.6 4.56016C11.7956 4.75571 12.0267 4.85349 12.2933 4.85349C12.56 4.85349 12.7822 4.75571 12.96 4.56016C13.1378 4.3646 13.2267 4.13349 13.2267 3.86682C13.2267 3.60016 13.1378 3.37793 12.96 3.20016C12.7822 3.02238 12.5511 2.93349 12.2667 2.93349ZM8 4.05349C7.25333 4.05349 6.56 4.23127 5.92 4.58682C5.28 4.94238 4.77333 5.44016 4.4 6.08016C4.02667 6.72016 3.84 7.41349 3.84 8.16016C3.84 8.90682 4.02667 9.60016 4.4 10.2402C4.77333 10.8802 5.28 11.3779 5.92 11.7335C6.56 12.089 7.25333 12.2668 8 12.2668C8.74667 12.2668 9.43111 12.0802 10.0533 11.7068C10.6756 11.3335 11.1644 10.8357 11.52 10.2135C11.8756 9.59127 12.0533 8.90682 12.0533 8.16016C12.0533 7.41349 11.8756 6.72904 11.52 6.10682C11.1644 5.4846 10.6756 4.98682 10.0533 4.61349C9.43111 4.24016 8.74667 4.05349 8 4.05349ZM8 5.49349C8.46222 5.49349 8.90667 5.60905 9.33333 5.84016C9.76 6.07127 10.0889 6.40016 10.32 6.82682C10.5511 7.25349 10.6667 7.69793 10.6667 8.16016C10.6667 8.62238 10.5511 9.06682 10.32 9.49349C10.0889 9.92016 9.76 10.249 9.33333 10.4802C8.90667 10.7113 8.46222 10.8268 8 10.8268C7.25333 10.8268 6.62222 10.569 6.10667 10.0535C5.59111 9.53793 5.33333 8.90682 5.33333 8.16016C5.33333 7.41349 5.59111 6.78238 6.10667 6.26682C6.62222 5.75127 7.25333 5.49349 8 5.49349Z" fill="black"/>
</g>
<defs>
<clipPath id="clip0_302_578">
<rect width="16" height="16" fill="white" transform="matrix(1 0 0 -1 0 16.1602)"/>
</clipPath>
</defs>
</svg>
