<svg width="28" height="29" viewBox="0 0 28 29" fill="none" xmlns="http://www.w3.org/2000/svg">
<g clip-path="url(#clip0_302_341)">
<path d="M10.5467 6.85016C10.5467 6.10349 10.7956 5.46572 11.2933 4.93683C11.7911 4.40794 12.4133 4.17461 13.16 4.23683H14.84C15.5867 4.17461 16.2244 4.40794 16.7533 4.93683C17.2822 5.46572 17.5156 6.10349 17.4533 6.85016V8.53016C17.4533 9.27683 17.2044 9.89905 16.7067 10.3968C16.2089 10.8946 15.5867 11.1435 14.84 11.1435V12.9168H24.5467C24.7333 12.9168 24.92 13.0102 25.1067 13.1968C25.2933 13.3835 25.3867 13.6013 25.3867 13.8502V15.5302C25.3867 15.7791 25.2933 15.9968 25.1067 16.1835C24.92 16.3702 24.7178 16.4635 24.5 16.4635C24.2822 16.4635 24.08 16.3702 23.8933 16.1835C23.7067 15.9968 23.6133 15.7791 23.6133 15.5302V14.6902H14.84V15.5302C14.84 15.7791 14.7622 15.9968 14.6067 16.1835C14.4511 16.3702 14.2489 16.4635 14 16.4635C13.7511 16.4635 13.5489 16.3702 13.3933 16.1835C13.2378 15.9968 13.16 15.7791 13.16 15.5302V14.6902H4.38667V15.5302C4.38667 15.7791 4.29333 15.9968 4.10667 16.1835C3.92 16.3702 3.71778 16.4635 3.5 16.4635C3.28222 16.4635 3.08 16.3702 2.89333 16.1835C2.70667 15.9968 2.61333 15.7791 2.61333 15.5302V13.8502C2.61333 13.6013 2.70667 13.3835 2.89333 13.1968C3.08 13.0102 3.29778 12.9168 3.54667 12.9168H13.16V11.1435C12.4133 11.2057 11.7911 10.9724 11.2933 10.4435C10.7956 9.91461 10.5467 9.27683 10.5467 8.53016V6.85016ZM14.84 9.4635C15.0889 9.4635 15.3067 9.37016 15.4933 9.18349C15.68 8.99683 15.7733 8.77905 15.7733 8.53016V6.85016C15.7733 6.60127 15.68 6.3835 15.4933 6.19683C15.3067 6.01016 15.0889 5.91683 14.84 5.91683H13.16C12.9111 5.91683 12.6933 6.01016 12.5067 6.19683C12.32 6.3835 12.2267 6.60127 12.2267 6.85016V8.53016C12.2267 8.77905 12.32 8.99683 12.5067 9.18349C12.6933 9.37016 12.9111 9.4635 13.16 9.4635H14.84ZM0 20.8502C0 20.1035 0.248889 19.4813 0.746667 18.9835C1.24444 18.4857 1.86667 18.2368 2.61333 18.2368H4.38667C5.13333 18.1746 5.75556 18.4079 6.25333 18.9368C6.75111 19.4657 7 20.1035 7 20.8502V22.5302C7 23.2768 6.75111 23.8991 6.25333 24.3968C5.75556 24.8946 5.13333 25.1435 4.38667 25.1435H2.61333C1.86667 25.1435 1.24444 24.8946 0.746667 24.3968C0.248889 23.8991 0 23.2768 0 22.5302V20.8502ZM2.61333 19.9168C2.36444 19.9168 2.16222 20.0102 2.00667 20.1968C1.85111 20.3835 1.77333 20.6013 1.77333 20.8502V22.5302C1.77333 22.7791 1.85111 22.9968 2.00667 23.1835C2.16222 23.3702 2.36444 23.4635 2.61333 23.4635H4.38667C4.63556 23.4635 4.83778 23.3702 4.99333 23.1835C5.14889 22.9968 5.22667 22.7791 5.22667 22.5302V20.8502C5.22667 20.6013 5.14889 20.3835 4.99333 20.1968C4.83778 20.0102 4.63556 19.9168 4.38667 19.9168H2.61333ZM10.5467 20.8502C10.5467 20.1035 10.7956 19.4813 11.2933 18.9835C11.7911 18.4857 12.4133 18.2368 13.16 18.2368H14.84C15.5867 18.1746 16.2244 18.4079 16.7533 18.9368C17.2822 19.4657 17.5156 20.1035 17.4533 20.8502V22.5302C17.4533 23.2768 17.2044 23.8991 16.7067 24.3968C16.2089 24.8946 15.5867 25.1435 14.84 25.1435H13.16C12.4133 25.2057 11.7911 24.9724 11.2933 24.4435C10.7956 23.9146 10.5467 23.2768 10.5467 22.5302V20.8502ZM13.16 19.9168C12.9111 19.9168 12.6933 20.0102 12.5067 20.1968C12.32 20.3835 12.2267 20.6013 12.2267 20.8502V22.5302C12.2267 22.7791 12.32 22.9968 12.5067 23.1835C12.6933 23.3702 12.9111 23.4635 13.16 23.4635H14.84C15.0889 23.4635 15.3067 23.3702 15.4933 23.1835C15.68 22.9968 15.7733 22.7791 15.7733 22.5302V20.8502C15.7733 20.6013 15.68 20.3835 15.4933 20.1968C15.3067 20.0102 15.0889 19.9168 14.84 19.9168H13.16ZM21 20.8502C21 20.1035 21.2489 19.4657 21.7467 18.9368C22.2444 18.4079 22.8667 18.1746 23.6133 18.2368H25.3867C26.1333 18.1746 26.7556 18.4079 27.2533 18.9368C27.7511 19.4657 28 20.1035 28 20.8502V22.5302C28 23.2768 27.7511 23.8991 27.2533 24.3968C26.7556 24.8946 26.1333 25.1435 25.3867 25.1435H23.6133C22.8667 25.2057 22.2444 24.9724 21.7467 24.4435C21.2489 23.9146 21 23.2768 21 22.5302V20.8502ZM23.6133 19.9168C23.3644 19.9168 23.1622 20.0102 23.0067 20.1968C22.8511 20.3835 22.7733 20.6013 22.7733 20.8502V22.5302C22.7733 22.7791 22.8511 22.9968 23.0067 23.1835C23.1622 23.3702 23.3644 23.4635 23.6133 23.4635H25.3867C25.6356 23.4635 25.8378 23.3702 25.9933 23.1835C26.1489 22.9968 26.2267 22.7791 26.2267 22.5302V20.8502C26.2267 20.6013 26.1489 20.3835 25.9933 20.1968C25.8378 20.0102 25.6356 19.9168 25.3867 19.9168H23.6133Z" fill="#0D83FD"/>
</g>
<defs>
<clipPath id="clip0_302_341">
<rect width="28" height="28" fill="white" transform="matrix(1 0 0 -1 0 28.6899)"/>
</clipPath>
</defs>
</svg>
