<svg width="16" height="17" viewBox="0 0 16 17" fill="none" xmlns="http://www.w3.org/2000/svg">
<g clip-path="url(#clip0_302_581)">
<path d="M0 1.28016C0 0.995711 0.115556 0.737934 0.346667 0.506823C0.577778 0.275711 0.853333 0.160156 1.17333 0.160156H14.8267C15.1467 0.160156 15.4222 0.275711 15.6533 0.506823C15.8844 0.737934 16 0.995711 16 1.28016V15.0402C16 15.3246 15.8844 15.5824 15.6533 15.8135C15.4222 16.0446 15.1467 16.1602 14.8267 16.1602H1.17333C0.853333 16.1602 0.577778 16.0446 0.346667 15.8135C0.115556 15.5824 0 15.3246 0 15.0402V1.28016ZM4.96 13.5468V6.34682H2.56V13.5468H4.96ZM3.73333 5.33349C4.16 5.33349 4.49778 5.21793 4.74667 4.98682C4.99556 4.75571 5.11111 4.46238 5.09333 4.10682C5.07556 3.75127 4.95111 3.44905 4.72 3.20016C4.48889 2.95127 4.16889 2.82682 3.76 2.82682C3.35111 2.82682 3.02222 2.95127 2.77333 3.20016C2.52444 3.44905 2.4 3.75127 2.4 4.10682C2.4 4.46238 2.52444 4.75571 2.77333 4.98682C3.02222 5.21793 3.34222 5.33349 3.73333 5.33349ZM8.64 13.5468V9.49349C8.64 9.2446 8.67556 9.04905 8.74667 8.90682C8.81778 8.69349 8.96 8.49793 9.17333 8.32016C9.38667 8.14238 9.65333 8.05349 9.97333 8.05349C10.4 8.05349 10.7111 8.19571 10.9067 8.48016C11.1022 8.7646 11.2 9.17349 11.2 9.70682V13.5468H13.6V9.38682C13.6 8.32016 13.3422 7.51127 12.8267 6.96016C12.3111 6.40905 11.6444 6.13349 10.8267 6.13349C10.2578 6.13349 9.77778 6.27571 9.38667 6.56016C9.10222 6.73793 8.85333 7.0046 8.64 7.36016V6.34682H6.24C6.27556 6.63127 6.27556 7.91127 6.24 10.1868V13.5468H8.64Z" fill="black"/>
</g>
<defs>
<clipPath id="clip0_302_581">
<rect width="16" height="16" fill="white" transform="matrix(1 0 0 -1 0 16.1602)"/>
</clipPath>
</defs>
</svg>
