<svg width="24" height="25" viewBox="0 0 24 25" fill="none" xmlns="http://www.w3.org/2000/svg">
<g clip-path="url(#clip0_302_187)">
<path d="M24 12.7C24 14.6733 23.5467 16.5266 22.64 18.26C21.7333 19.9933 20.4667 21.42 18.84 22.54C17.2133 23.66 15.4133 24.3533 13.44 24.62L16.32 13.98C16.5333 13.2333 16.56 12.4733 16.4 11.7C16.24 10.9266 15.8933 10.2733 15.36 9.73995H23.6C23.8667 10.7 24 11.6866 24 12.7ZM0 12.7C0 14.8333 0.533333 16.82 1.6 18.66C2.66667 20.5 4.10667 21.9666 5.92 23.06C7.73333 24.1533 9.73333 24.7 11.92 24.7L14 16.7C13.68 16.86 13.3333 16.9933 12.96 17.1C12.0533 17.3133 11.1733 17.2333 10.32 16.86C9.73333 16.6466 9.22667 16.3 8.8 15.82L0.96 7.97995C0.32 9.52662 0 11.1 0 12.7ZM7.52 12.46L1.68 6.61995C2.85333 4.64662 4.44 3.12662 6.44 2.05995C8.44 0.993284 10.5867 0.553286 12.88 0.739952C15.1733 0.926619 17.24 1.68662 19.08 3.01995C20.92 4.35328 22.2667 6.08662 23.12 8.21995H12.08C11.44 8.16662 10.8267 8.27328 10.24 8.53995C9.44 8.91329 8.8 9.44662 8.32 10.14C7.84 10.8333 7.57333 11.6066 7.52 12.46ZM12 15.66C12.8533 15.66 13.5733 15.38 14.16 14.82C14.7467 14.26 15.04 13.5533 15.04 12.7C15.04 11.8466 14.7467 11.1266 14.16 10.54C13.5733 9.95329 12.8533 9.65995 12 9.65995C11.1467 9.65995 10.4267 9.95329 9.84 10.54C9.25333 11.1266 8.97333 11.8466 9 12.7C9.02667 13.5533 9.32 14.26 9.88 14.82C10.44 15.38 11.1467 15.66 12 15.66Z" fill="#0D83FD"/>
</g>
<defs>
<clipPath id="clip0_302_187">
<rect width="24" height="24" fill="white" transform="matrix(1 0 0 -1 0 24.7)"/>
</clipPath>
</defs>
</svg>
