<svg width="24" height="25" viewBox="0 0 24 25" fill="none" xmlns="http://www.w3.org/2000/svg">
<g clip-path="url(#clip0_302_39)">
<path d="M9.76 2.49996C9.12 2.49996 8.58667 2.71329 8.16 3.13996C7.73333 3.56663 7.52 4.09996 7.52 4.73996V5.45996H2.24C1.6 5.45996 1.06667 5.68663 0.64 6.13996C0.213333 6.59329 0 7.11329 0 7.69996V19.7C0 20.34 0.213333 20.8866 0.64 21.34C1.06667 21.7933 1.6 22.02 2.24 22.02H21.76C22.4 21.9666 22.9333 21.7266 23.36 21.3C23.7867 20.8733 24 20.34 24 19.7V7.69996C24 7.11329 23.7867 6.59329 23.36 6.13996C22.9333 5.68663 22.4 5.45996 21.76 5.45996H16.48V4.73996C16.48 4.09996 16.2667 3.56663 15.84 3.13996C15.4133 2.71329 14.88 2.49996 14.24 2.49996H9.76ZM9.76 3.93996H14.24C14.4533 3.93996 14.64 4.01996 14.8 4.17996C14.96 4.33996 15.04 4.52662 15.04 4.73996V5.45996H9.04V4.73996C9.04 4.52662 9.10667 4.33996 9.24 4.17996C9.37333 4.01996 9.54667 3.93996 9.76 3.93996ZM12.56 14.34L22.48 11.7V19.7C22.48 19.9133 22.4133 20.1 22.28 20.26C22.1467 20.42 21.9733 20.5 21.76 20.5H2.24C2.02667 20.5 1.85333 20.42 1.72 20.26C1.58667 20.1 1.52 19.9133 1.52 19.7V11.7L11.44 14.34C11.8133 14.4466 12.1867 14.4466 12.56 14.34ZM2.24 6.97996H21.76C21.9733 6.97996 22.1467 7.04663 22.28 7.17996C22.4133 7.31329 22.48 7.48663 22.48 7.69996V10.18L12.16 12.9C12.0533 12.9533 11.9467 12.9533 11.84 12.9L1.52 10.18V7.69996C1.52 7.48663 1.58667 7.31329 1.72 7.17996C1.85333 7.04663 2.02667 6.97996 2.24 6.97996Z" fill="#0D83FD"/>
</g>
<defs>
<clipPath id="clip0_302_39">
<rect width="24" height="24" fill="white" transform="matrix(1 0 0 -1 0 24.98)"/>
</clipPath>
</defs>
</svg>
