<svg width="24" height="25" viewBox="0 0 24 25" fill="none" xmlns="http://www.w3.org/2000/svg">
<g clip-path="url(#clip0_302_162)">
<path d="M0 6.69996C0 6.53996 0.0266667 6.37996 0.08 6.21996C0.133333 5.84663 0.24 5.49996 0.4 5.17996C0.613333 4.75329 0.933333 4.3933 1.36 4.09996C1.78667 3.80663 2.34667 3.65996 3.04 3.65996H21.04L21.44 3.73996C21.8133 3.79329 22.16 3.89996 22.48 4.05996C22.9067 4.27329 23.2667 4.59329 23.56 5.01996C23.8533 5.44663 24 6.00663 24 6.69996V15.66L23.92 16.14C23.8667 16.5133 23.76 16.86 23.6 17.18C23.3867 17.6066 23.0667 17.9666 22.64 18.26C22.2133 18.5533 21.68 18.7 21.04 18.7H15.04C15.04 19.7133 15.1467 20.46 15.36 20.94H16.48C16.6933 20.94 16.88 21.02 17.04 21.18C17.2 21.34 17.28 21.5133 17.28 21.7C17.28 21.8866 17.2 22.06 17.04 22.22C16.88 22.38 16.6933 22.46 16.48 22.46H7.52C7.30667 22.46 7.12 22.38 6.96 22.22C6.8 22.06 6.72 21.8866 6.72 21.7C6.72 21.5133 6.8 21.34 6.96 21.18C7.12 21.02 7.30667 20.94 7.52 20.94H8.64C8.90667 20.46 9.04 19.7133 9.04 18.7H3.04L2.56 18.62C2.18667 18.5666 1.84 18.46 1.52 18.3C1.09333 18.0866 0.733333 17.7666 0.44 17.34C0.146667 16.9133 0 16.3533 0 15.66V6.69996ZM2.08 5.41996C1.92 5.52663 1.78667 5.69996 1.68 5.93996C1.57333 6.17996 1.52 6.43329 1.52 6.69996V15.66C1.52 16.0866 1.57333 16.3933 1.68 16.58C1.78667 16.7666 1.96 16.9133 2.2 17.02C2.44 17.1266 2.69333 17.18 2.96 17.18H21.04C21.4133 17.18 21.6933 17.1133 21.88 16.98C22.0667 16.8466 22.2133 16.6733 22.32 16.46C22.4267 16.2466 22.48 16.0066 22.48 15.74V6.69996C22.48 6.32663 22.4133 6.04663 22.28 5.85996C22.1467 5.67329 21.9733 5.52663 21.76 5.41996C21.5467 5.3133 21.28 5.2333 20.96 5.17996H3.04C2.61333 5.17996 2.29333 5.25996 2.08 5.41996Z" fill="#0D83FD"/>
</g>
<defs>
<clipPath id="clip0_302_162">
<rect width="24" height="24" fill="white" transform="matrix(1 0 0 -1 0 24.7)"/>
</clipPath>
</defs>
</svg>
