<svg width="25" height="25" viewBox="0 0 25 25" fill="none" xmlns="http://www.w3.org/2000/svg">
<g clip-path="url(#clip0_302_17)">
<path d="M12.3398 22.75C10.4198 22.75 8.65984 22.2834 7.05984 21.35C5.45984 20.4167 4.19318 19.15 3.25984 17.55C2.32651 15.95 1.85984 14.19 1.85984 12.27C1.85984 10.35 2.32651 8.59002 3.25984 6.99002C4.19318 5.39002 5.45984 4.12335 7.05984 3.19002C8.65984 2.25669 10.4198 1.79002 12.3398 1.79002C14.2598 1.79002 16.0198 2.25669 17.6198 3.19002C19.2198 4.12335 20.4865 5.39002 21.4198 6.99002C22.3532 8.59002 22.8198 10.35 22.8198 12.27C22.8198 14.19 22.3532 15.95 21.4198 17.55C20.4865 19.15 19.2198 20.4167 17.6198 21.35C16.0198 22.2834 14.2598 22.75 12.3398 22.75ZM12.3398 24.27C14.5265 24.27 16.5398 23.7367 18.3798 22.67C20.2198 21.6034 21.6732 20.15 22.7398 18.31C23.8065 16.47 24.3398 14.4567 24.3398 12.27C24.3398 10.0834 23.8065 8.07002 22.7398 6.23002C21.6732 4.39002 20.2198 2.93669 18.3798 1.87002C16.5398 0.803354 14.5265 0.27002 12.3398 0.27002C10.1532 0.27002 8.13984 0.803354 6.29984 1.87002C4.45984 2.93669 3.00651 4.39002 1.93984 6.23002C0.873177 8.07002 0.339844 10.0834 0.339844 12.27C0.339844 14.4567 0.873177 16.47 1.93984 18.31C3.00651 20.15 4.45984 21.6034 6.29984 22.67C8.13984 23.7367 10.1532 24.27 12.3398 24.27ZM9.77984 7.87002C10.0465 7.71002 10.2865 7.71002 10.4998 7.87002L15.7798 11.63C15.9932 11.79 16.0998 12.0034 16.0998 12.27C16.0998 12.5367 15.9932 12.75 15.7798 12.91L10.4998 16.67C10.2865 16.83 10.0332 16.8434 9.73984 16.71C9.44651 16.5767 9.32651 16.35 9.37984 16.03V8.51002C9.32651 8.19002 9.45984 7.97669 9.77984 7.87002Z" fill="#2D465E"/>
</g>
<defs>
<clipPath id="clip0_302_17">
<rect width="24" height="24" fill="white" transform="matrix(1 0 0 -1 0.339844 24.27)"/>
</clipPath>
</defs>
</svg>
