<svg width="24" height="25" viewBox="0 0 24 25" fill="none" xmlns="http://www.w3.org/2000/svg">
<g clip-path="url(#clip0_302_45)">
<path d="M0 0.97998H1.52V23.46H24V24.98H0V0.97998ZM22.24 5.61998C22.4 5.77998 22.4933 5.96665 22.52 6.17998C22.5467 6.39331 22.48 6.57998 22.32 6.73998L15.6 14.98C15.44 15.14 15.2533 15.22 15.04 15.22C14.8267 15.22 14.64 15.14 14.48 14.98L10.56 11.14L5.12 18.66C4.96 18.82 4.78667 18.9133 4.6 18.94C4.41333 18.9666 4.24 18.9266 4.08 18.82C3.92 18.7133 3.82667 18.5533 3.8 18.34C3.77333 18.1266 3.81333 17.94 3.92 17.78L9.92 9.53998C10.0267 9.32665 10.2 9.21998 10.44 9.21998C10.68 9.21998 10.88 9.29998 11.04 9.45998L14.96 13.38L21.2 5.77998C21.3067 5.61998 21.4667 5.52665 21.68 5.49998C21.8933 5.47331 22.08 5.51331 22.24 5.61998Z" fill="#0D83FD"/>
</g>
<defs>
<clipPath id="clip0_302_45">
<rect width="24" height="24" fill="white" transform="matrix(1 0 0 -1 0 24.98)"/>
</clipPath>
</defs>
</svg>
