<svg width="24" height="25" viewBox="0 0 24 25" fill="none" xmlns="http://www.w3.org/2000/svg">
<g clip-path="url(#clip0_302_177)">
<path d="M21.04 2.21995C21.4133 2.21995 21.7467 2.36662 22.04 2.65995C22.3333 2.95329 22.48 3.28662 22.48 3.65995V21.66C22.48 22.0866 22.3333 22.4466 22.04 22.74C21.7467 23.0333 21.4133 23.18 21.04 23.18H3.04C2.61333 23.18 2.25333 23.0333 1.96 22.74C1.66667 22.4466 1.52 22.0866 1.52 21.66V3.65995C1.52 3.28662 1.66667 2.95329 1.96 2.65995C2.25333 2.36662 2.58667 2.21995 2.96 2.21995H21.04ZM3.04 0.699951C2.18667 0.699951 1.46667 0.993284 0.88 1.57995C0.293333 2.16662 0 2.88662 0 3.73995V21.66C0 22.5133 0.293333 23.2333 0.88 23.82C1.46667 24.4066 2.16 24.7 2.96 24.7H21.04C21.84 24.7 22.5333 24.4066 23.12 23.82C23.7067 23.2333 24 22.5133 24 21.66V3.65995C24 2.85995 23.7067 2.16662 23.12 1.57995C22.5333 0.993284 21.8133 0.699951 20.96 0.699951H3.04ZM10.32 7.65995C10.4267 7.81995 10.48 8.00662 10.48 8.21995C10.48 8.43328 10.4267 8.59328 10.32 8.69995L6.32 12.7L10.32 16.7C10.4267 16.8066 10.48 16.9666 10.48 17.18C10.48 17.3933 10.4133 17.58 10.28 17.74C10.1467 17.9 9.97333 17.98 9.76 17.98C9.54667 17.98 9.36 17.9 9.2 17.74L4.72 13.26C4.56 13.1 4.48 12.9133 4.48 12.7C4.48 12.4866 4.56 12.3 4.72 12.14L9.2 7.65995C9.36 7.49995 9.54667 7.41995 9.76 7.41995C9.97333 7.41995 10.16 7.49995 10.32 7.65995ZM13.68 7.65995C13.5733 7.81995 13.52 8.00662 13.52 8.21995C13.52 8.43328 13.5733 8.59328 13.68 8.69995L17.68 12.7L13.68 16.7C13.5733 16.8066 13.52 16.9666 13.52 17.18C13.52 17.3933 13.5867 17.58 13.72 17.74C13.8533 17.9 14.0267 17.98 14.24 17.98C14.4533 17.98 14.64 17.9 14.8 17.74L19.28 13.26C19.44 13.1 19.52 12.9133 19.52 12.7C19.52 12.4866 19.44 12.3 19.28 12.14L14.8 7.65995C14.64 7.49995 14.4533 7.41995 14.24 7.41995C14.0267 7.41995 13.84 7.49995 13.68 7.65995Z" fill="#0D83FD"/>
</g>
<defs>
<clipPath id="clip0_302_177">
<rect width="24" height="24" fill="white" transform="matrix(1 0 0 -1 0 24.7)"/>
</clipPath>
</defs>
</svg>
