<svg width="24" height="25" viewBox="0 0 24 25" fill="none" xmlns="http://www.w3.org/2000/svg">
<g clip-path="url(#clip0_302_33)">
<path d="M3.75989 1.69998C3.75989 1.48665 3.82656 1.31331 3.95989 1.17998C4.09322 1.04665 4.26656 0.97998 4.47989 0.97998H19.5199C19.7332 0.97998 19.9066 1.04665 20.0399 1.17998C20.1732 1.31331 20.2399 1.48665 20.2399 1.69998C20.2399 2.55331 20.2132 3.32665 20.1599 4.01998C21.0132 4.17998 21.7466 4.51331 22.3599 5.01998C22.9732 5.52665 23.4132 6.16665 23.6799 6.93998C23.9466 7.71331 24.0132 8.49998 23.8799 9.29998C23.7466 10.1 23.3999 10.8066 22.8399 11.42C22.2799 12.0333 21.6132 12.4733 20.8399 12.74C20.0666 13.0066 19.2799 13.06 18.4799 12.9C17.9466 14.18 17.2799 15.22 16.4799 16.02C15.7866 16.7666 15.0399 17.22 14.2399 17.38V20.66L16.3999 21.14C16.6666 21.2466 16.9332 21.38 17.1999 21.54L19.9199 23.62C20.0799 23.7266 20.1866 23.86 20.2399 24.02C20.2932 24.18 20.2932 24.3266 20.2399 24.46C20.1866 24.5933 20.0932 24.7133 19.9599 24.82C19.8266 24.9266 19.6799 24.98 19.5199 24.98H4.47989C4.31989 24.98 4.17322 24.9266 4.03989 24.82C3.90656 24.7133 3.81322 24.5933 3.75989 24.46C3.70656 24.3266 3.70656 24.18 3.75989 24.02C3.81322 23.86 3.91989 23.7266 4.07989 23.62L6.79989 21.54C7.06656 21.38 7.33322 21.2466 7.59989 21.14L9.75989 20.66V17.38C8.95989 17.22 8.21322 16.7666 7.51989 16.02C6.71989 15.22 6.05322 14.18 5.51989 12.9C4.71989 13.06 3.93322 13.0066 3.15989 12.74C2.38656 12.4733 1.71989 12.0333 1.15989 11.42C0.599889 10.8066 0.253223 10.1 0.119889 9.29998C-0.013444 8.49998 0.0532227 7.71331 0.319889 6.93998C0.586556 6.16665 1.02656 5.52665 1.63989 5.01998C2.25322 4.51331 2.98656 4.17998 3.83989 4.01998C3.78656 3.27331 3.75989 2.49998 3.75989 1.69998ZM3.91989 5.53998C3.06656 5.69998 2.41322 6.11331 1.95989 6.77998C1.50656 7.44665 1.34656 8.19331 1.47989 9.01998C1.61322 9.84665 2.02656 10.5 2.71989 10.98C3.41322 11.46 4.15989 11.62 4.95989 11.46C4.42656 9.75331 4.07989 7.77998 3.91989 5.53998ZM19.0399 11.46C19.8399 11.62 20.5866 11.46 21.2799 10.98C21.9732 10.5 22.3866 9.84665 22.5199 9.01998C22.6532 8.19331 22.4932 7.44665 22.0399 6.77998C21.5866 6.11331 20.9332 5.69998 20.0799 5.53998C19.9199 7.77998 19.5732 9.75331 19.0399 11.46ZM5.27989 2.49998C5.27989 3.24665 5.30656 3.96665 5.35989 4.65998C5.51989 7.48665 5.94656 9.83331 6.63989 11.7C7.22656 13.2466 7.94656 14.3933 8.79989 15.14C9.38656 15.7266 9.94656 16.02 10.4799 16.02C10.6932 16.02 10.8799 16.0866 11.0399 16.22C11.1999 16.3533 11.2799 16.5266 11.2799 16.74V20.66C11.2799 20.98 11.1732 21.2733 10.9599 21.54C10.7466 21.8066 10.4532 21.9933 10.0799 22.1L7.99989 22.66C7.89322 22.66 7.78656 22.6866 7.67989 22.74L6.71989 23.46H17.2799L16.3199 22.74C16.2132 22.6866 16.1066 22.66 15.9999 22.66L13.9199 22.1C13.5466 21.9933 13.2532 21.8066 13.0399 21.54C12.8266 21.2733 12.7199 20.98 12.7199 20.66V16.74C12.7199 16.5266 12.7999 16.34 12.9599 16.18C13.1199 16.02 13.3066 15.94 13.5199 15.94C14.0532 15.94 14.6132 15.6733 15.1999 15.14C16.0532 14.3933 16.7732 13.2466 17.3599 11.7C18.0532 9.83331 18.4799 7.48665 18.6399 4.65998C18.6932 3.96665 18.7199 3.24665 18.7199 2.49998H5.27989Z" fill="#0D83FD"/>
</g>
<defs>
<clipPath id="clip0_302_33">
<rect width="24" height="24" fill="white" transform="matrix(1 0 0 -1 0 24.98)"/>
</clipPath>
</defs>
</svg>
