<svg width="40" height="41" viewBox="0 0 40 41" fill="none" xmlns="http://www.w3.org/2000/svg">
<rect x="0.5" y="0.660156" width="39" height="39" rx="19.5" stroke="#212529" stroke-opacity="0.5"/>
<g clip-path="url(#clip0_302_580)">
<path d="M12 12.2802C12 11.9957 12.1156 11.7379 12.3467 11.5068C12.5778 11.2757 12.8533 11.1602 13.1733 11.1602H26.8267C27.1467 11.1602 27.4222 11.2757 27.6533 11.5068C27.8844 11.7379 28 11.9957 28 12.2802V26.0402C28 26.3246 27.8844 26.5824 27.6533 26.8135C27.4222 27.0446 27.1467 27.1602 26.8267 27.1602H13.1733C12.8533 27.1602 12.5778 27.0446 12.3467 26.8135C12.1156 26.5824 12 26.3246 12 26.0402V12.2802ZM16.96 24.5468V17.3468H14.56V24.5468H16.96ZM15.7333 16.3335C16.16 16.3335 16.4978 16.2179 16.7467 15.9868C16.9956 15.7557 17.1111 15.4624 17.0933 15.1068C17.0756 14.7513 16.9511 14.449 16.72 14.2002C16.4889 13.9513 16.1689 13.8268 15.76 13.8268C15.3511 13.8268 15.0222 13.9513 14.7733 14.2002C14.5244 14.449 14.4 14.7513 14.4 15.1068C14.4 15.4624 14.5244 15.7557 14.7733 15.9868C15.0222 16.2179 15.3422 16.3335 15.7333 16.3335ZM20.64 24.5468V20.4935C20.64 20.2446 20.6756 20.049 20.7467 19.9068C20.8178 19.6935 20.96 19.4979 21.1733 19.3202C21.3867 19.1424 21.6533 19.0535 21.9733 19.0535C22.4 19.0535 22.7111 19.1957 22.9067 19.4802C23.1022 19.7646 23.2 20.1735 23.2 20.7068V24.5468H25.6V20.3868C25.6 19.3202 25.3422 18.5113 24.8267 17.9602C24.3111 17.409 23.6444 17.1335 22.8267 17.1335C22.2578 17.1335 21.7778 17.2757 21.3867 17.5602C21.1022 17.7379 20.8533 18.0046 20.64 18.3602V17.3468H18.24C18.2756 17.6313 18.2756 18.9113 18.24 21.1868V24.5468H20.64Z" fill="black"/>
</g>
<defs>
<clipPath id="clip0_302_580">
<rect width="16" height="16" fill="white" transform="matrix(1 0 0 -1 12 27.1602)"/>
</clipPath>
</defs>
</svg>
