<svg width="40" height="41" viewBox="0 0 40 41" fill="none" xmlns="http://www.w3.org/2000/svg">
<rect x="0.5" y="0.660156" width="39" height="39" rx="19.5" stroke="#212529" stroke-opacity="0.5"/>
<g clip-path="url(#clip0_302_574)">
<path d="M28 19.2135C28 17.7557 27.6444 16.4135 26.9333 15.1868C26.2222 13.9602 25.2533 12.9824 24.0267 12.2535C22.8 11.5246 21.4578 11.1602 20 11.1602C18.5422 11.1602 17.2 11.5246 15.9733 12.2535C14.7467 12.9824 13.7778 13.9602 13.0667 15.1868C12.3556 16.4135 12 17.7557 12 19.2135C12 20.529 12.2933 21.7557 12.88 22.8935C13.4667 24.0313 14.2756 24.9735 15.3067 25.7202C16.3378 26.4668 17.4933 26.9468 18.7733 27.1602V21.5602H16.6933V19.2135H18.7733V17.4535C18.7733 16.4579 19.04 15.6846 19.5733 15.1335C20.1067 14.5824 20.8356 14.3068 21.76 14.3068C22.1156 14.3068 22.5244 14.3246 22.9867 14.3602L23.5733 14.4668V16.4402H22.56C22.0978 16.4402 21.76 16.5557 21.5467 16.7868C21.3333 17.0179 21.2267 17.329 21.2267 17.7202V19.2135H23.4667L23.0933 21.5602H21.2267V27.1602C22.5067 26.9468 23.6622 26.4668 24.6933 25.7202C25.7244 24.9735 26.5333 24.0313 27.12 22.8935C27.7067 21.7557 28 20.529 28 19.2135Z" fill="black"/>
</g>
<defs>
<clipPath id="clip0_302_574">
<rect width="16" height="16" fill="white" transform="matrix(1 0 0 -1 12 27.1602)"/>
</clipPath>
</defs>
</svg>
