<svg width="40" height="41" viewBox="0 0 40 41" fill="none" xmlns="http://www.w3.org/2000/svg">
<rect x="0.5" y="0.660156" width="39" height="39" rx="19.5" stroke="#212529" stroke-opacity="0.5"/>
<g clip-path="url(#clip0_302_577)">
<path d="M20 11.1602C18.5067 11.1602 17.3956 11.1779 16.6667 11.2135C15.9378 11.249 15.3067 11.3735 14.7733 11.5868C14.24 11.8002 13.7689 12.1113 13.36 12.5202C12.9511 12.929 12.64 13.4002 12.4267 13.9335C12.2133 14.4668 12.0889 15.0979 12.0533 15.8268C12.0178 16.5557 12 17.6668 12 19.1602C12 20.6535 12.0178 21.7646 12.0533 22.4935C12.0889 23.2224 12.2133 23.8535 12.4267 24.3868C12.64 24.9202 12.9511 25.3913 13.36 25.8002C13.7689 26.209 14.24 26.5202 14.7733 26.7335C15.3067 26.9468 15.9378 27.0713 16.6667 27.1068C17.3956 27.1424 18.5067 27.1602 20 27.1602C21.4933 27.1602 22.6044 27.1424 23.3333 27.1068C24.0622 27.0713 24.6933 26.9468 25.2267 26.7335C25.76 26.5202 26.2311 26.209 26.64 25.8002C27.0489 25.3913 27.36 24.9202 27.5733 24.3868C27.7867 23.8535 27.9111 23.2224 27.9467 22.4935C27.9822 21.7646 28 20.6535 28 19.1602C28 17.6668 27.9822 16.5557 27.9467 15.8268C27.9111 15.0979 27.7867 14.4668 27.5733 13.9335C27.36 13.4002 27.0489 12.929 26.64 12.5202C26.2311 12.1113 25.76 11.8002 25.2267 11.5868C24.6933 11.3735 24.0622 11.249 23.3333 11.2135C22.6044 11.1779 21.4933 11.1602 20 11.1602ZM19.3067 12.6002H20C21.4933 12.6002 22.5778 12.6179 23.2533 12.6535C23.8222 12.689 24.2933 12.7779 24.6667 12.9202C25.04 13.0624 25.36 13.2668 25.6267 13.5335C25.8933 13.8002 26.0978 14.1202 26.24 14.4935C26.3822 14.8668 26.4711 15.3379 26.5067 15.9068C26.5422 16.5824 26.56 17.6668 26.56 19.1602C26.56 20.6535 26.5422 21.7379 26.5067 22.4135C26.4711 22.9824 26.3822 23.4535 26.24 23.8268C26.0978 24.2002 25.8933 24.5202 25.6267 24.7868C25.36 25.0535 25.04 25.2579 24.6667 25.4002C24.2933 25.5424 23.8222 25.6313 23.2533 25.6668C22.5422 25.7024 21.4578 25.7202 20 25.7202C18.5422 25.7202 17.4578 25.7024 16.7467 25.6668C16.1778 25.6313 15.7067 25.5424 15.3333 25.4002C14.96 25.2579 14.64 25.0535 14.3733 24.7868C14.1067 24.5202 13.9022 24.2002 13.76 23.8268C13.6178 23.4535 13.5289 22.9824 13.4933 22.4135C13.4578 21.7024 13.44 20.609 13.44 19.1335C13.44 17.6579 13.4578 16.5824 13.4933 15.9068C13.5289 15.3379 13.6178 14.8668 13.76 14.4935C13.9022 14.1202 14.1067 13.8002 14.3733 13.5335C14.64 13.2668 14.96 13.0624 15.3333 12.9202C15.7067 12.7779 16.1956 12.689 16.8 12.6535C17.4044 12.6179 18.24 12.6002 19.3067 12.6002ZM24.2667 13.9335C24.0178 13.9335 23.7956 14.0224 23.6 14.2002C23.4044 14.3779 23.3067 14.6002 23.3067 14.8668C23.3067 15.1335 23.4044 15.3646 23.6 15.5602C23.7956 15.7557 24.0267 15.8535 24.2933 15.8535C24.56 15.8535 24.7822 15.7557 24.96 15.5602C25.1378 15.3646 25.2267 15.1335 25.2267 14.8668C25.2267 14.6002 25.1378 14.3779 24.96 14.2002C24.7822 14.0224 24.5511 13.9335 24.2667 13.9335ZM20 15.0535C19.2533 15.0535 18.56 15.2313 17.92 15.5868C17.28 15.9424 16.7733 16.4402 16.4 17.0802C16.0267 17.7202 15.84 18.4135 15.84 19.1602C15.84 19.9068 16.0267 20.6002 16.4 21.2402C16.7733 21.8802 17.28 22.3779 17.92 22.7335C18.56 23.089 19.2533 23.2668 20 23.2668C20.7467 23.2668 21.4311 23.0802 22.0533 22.7068C22.6756 22.3335 23.1644 21.8357 23.52 21.2135C23.8756 20.5913 24.0533 19.9068 24.0533 19.1602C24.0533 18.4135 23.8756 17.729 23.52 17.1068C23.1644 16.4846 22.6756 15.9868 22.0533 15.6135C21.4311 15.2402 20.7467 15.0535 20 15.0535ZM20 16.4935C20.4622 16.4935 20.9067 16.609 21.3333 16.8402C21.76 17.0713 22.0889 17.4002 22.32 17.8268C22.5511 18.2535 22.6667 18.6979 22.6667 19.1602C22.6667 19.6224 22.5511 20.0668 22.32 20.4935C22.0889 20.9202 21.76 21.249 21.3333 21.4802C20.9067 21.7113 20.4622 21.8268 20 21.8268C19.2533 21.8268 18.6222 21.569 18.1067 21.0535C17.5911 20.5379 17.3333 19.9068 17.3333 19.1602C17.3333 18.4135 17.5911 17.7824 18.1067 17.2668C18.6222 16.7513 19.2533 16.4935 20 16.4935Z" fill="black"/>
</g>
<defs>
<clipPath id="clip0_302_577">
<rect width="16" height="16" fill="white" transform="matrix(1 0 0 -1 12 27.1602)"/>
</clipPath>
</defs>
</svg>
