<svg width="64" height="65" viewBox="0 0 64 65" fill="none" xmlns="http://www.w3.org/2000/svg">
<rect y="0.97998" width="64" height="64" rx="32" fill="#0D83FD" fill-opacity="0.08"/>
<g clip-path="url(#clip0_302_50)">
<path d="M34.4799 21.26L31.9999 19.98L29.5199 21.26L26.7199 21.66L25.4399 24.22L23.4399 26.22L23.9199 28.94L23.4399 31.74L25.4399 33.74L26.7199 36.3L29.5199 36.7L31.9999 37.98L34.4799 36.7L37.2799 36.3L38.5599 33.74L40.5599 31.74L40.0799 28.94L40.5599 26.22L38.5599 24.22L37.2799 21.66L34.4799 21.26ZM36.3199 23.1L37.3599 25.1L38.9599 26.7L38.5599 28.94L38.9599 31.26L37.3599 32.86L36.3199 34.86L33.9999 35.26L31.9999 36.3L29.9999 35.26L27.6799 34.86L26.6399 32.86L25.0399 31.26L25.4399 28.94L25.0399 26.7L26.6399 25.1L27.6799 23.1L29.9999 22.7L31.9999 21.66L33.9999 22.7L36.3199 23.1ZM25.9999 37.66V43.98L31.9999 42.46L37.9999 43.98V37.66L34.9599 38.14L31.9999 39.66L29.0399 38.14L25.9999 37.66Z" fill="#0D83FD"/>
</g>
<defs>
<clipPath id="clip0_302_50">
<rect width="24" height="24" fill="white" transform="matrix(1 0 0 -1 20 43.98)"/>
</clipPath>
</defs>
</svg>
