<svg width="56" height="57" viewBox="0 0 56 57" fill="none" xmlns="http://www.w3.org/2000/svg">
<rect y="0.339844" width="56" height="56" rx="28" fill="white" fill-opacity="0.15"/>
<g clip-path="url(#clip0_302_535)">
<path d="M16 21.3398C16 20.4865 16.2933 19.7665 16.88 19.1798C17.4667 18.5931 18.1867 18.2998 19.04 18.2998H37.04C37.84 18.2998 38.5333 18.5931 39.12 19.1798C39.7067 19.7665 40 20.4865 40 21.3398V33.3398C40 34.1931 39.7067 34.8998 39.12 35.4598C38.5333 36.0198 37.8133 36.2998 36.96 36.2998H19.04C18.1867 36.2998 17.4667 36.0198 16.88 35.4598C16.2933 34.8998 16 34.1931 16 33.3398V21.3398ZM19.04 19.8198C18.6133 19.8198 18.2533 19.9665 17.96 20.2598C17.6667 20.5531 17.52 20.9131 17.52 21.3398V21.6598L28 27.9798L38.48 21.6598V21.3398C38.48 20.9131 38.3333 20.5531 38.04 20.2598C37.7467 19.9665 37.4133 19.8198 37.04 19.8198H19.04ZM38.48 23.4198L31.44 27.6598L38.48 31.9798V23.4198ZM38.48 33.7398L30 28.5398L28 29.7398L26 28.5398L17.52 33.7398C17.6267 34.0598 17.8133 34.3265 18.08 34.5398C18.3467 34.7531 18.6667 34.8598 19.04 34.8598H37.04C37.36 34.8598 37.6533 34.7531 37.92 34.5398C38.1867 34.3265 38.3733 34.0598 38.48 33.7398ZM17.52 31.9798L24.56 27.6598L17.52 23.4198V31.9798Z" fill="white"/>
</g>
<defs>
<clipPath id="clip0_302_535">
<rect width="24" height="24" fill="white" transform="matrix(1 0 0 -1 16 39.3398)"/>
</clipPath>
</defs>
</svg>
