<svg width="56" height="57" viewBox="0 0 56 57" fill="none" xmlns="http://www.w3.org/2000/svg">
<rect y="0.160156" width="56" height="56" rx="28" fill="white" fill-opacity="0.15"/>
<g clip-path="url(#clip0_302_521)">
<path d="M34.24 28.6002C33.5466 29.9868 32.56 31.5068 31.28 33.1602C30.2666 34.4935 29.1733 35.7735 28 37.0002C26.8266 35.7735 25.7333 34.4935 24.72 33.1602C23.44 31.5068 22.4533 29.9868 21.76 28.6002C20.9066 26.8935 20.48 25.3868 20.48 24.0802C20.48 22.7735 20.8133 21.5468 21.48 20.4002C22.1466 19.2535 23.0666 18.3468 24.24 17.6802C25.4133 17.0135 26.6666 16.6802 28 16.6802C29.3333 16.6802 30.5866 17.0135 31.76 17.6802C32.9333 18.3468 33.8533 19.2535 34.52 20.4002C35.1866 21.5468 35.52 22.7735 35.52 24.0802C35.52 25.3868 35.0933 26.8935 34.24 28.6002ZM28 39.1602C28.48 38.6802 28.96 38.2002 29.44 37.7202C30.56 36.5468 31.5733 35.3468 32.48 34.1202C33.8133 32.3602 34.8533 30.7335 35.6 29.2402C36.56 27.3202 37.04 25.6135 37.04 24.1202C37.04 22.5202 36.6266 21.0268 35.8 19.6402C34.9733 18.2535 33.88 17.1602 32.52 16.3602C31.16 15.5602 29.6533 15.1602 28 15.1602C26.3466 15.1602 24.84 15.5602 23.48 16.3602C22.12 17.1602 21.0266 18.2535 20.2 19.6402C19.3733 21.0268 18.96 22.5202 18.96 24.1202C18.96 25.6135 19.44 27.3202 20.4 29.2402C21.1466 30.7335 22.1866 32.3602 23.52 34.1202C24.4266 35.3468 25.44 36.5468 26.56 37.7202L28 39.1602ZM28 27.1602C27.1466 27.1602 26.44 26.8668 25.88 26.2802C25.32 25.6935 25.04 24.9868 25.04 24.1602C25.04 23.3335 25.32 22.6268 25.88 22.0402C26.44 21.4535 27.1466 21.1602 28 21.1602C28.8533 21.1602 29.5733 21.4535 30.16 22.0402C30.7466 22.6268 31.04 23.3335 31.04 24.1602C31.04 24.9868 30.7466 25.6935 30.16 26.2802C29.5733 26.8668 28.8533 27.1602 28 27.1602ZM28 28.6802C29.2266 28.6802 30.28 28.2402 31.16 27.3602C32.04 26.4802 32.48 25.4135 32.48 24.1602C32.48 22.9068 32.04 21.8402 31.16 20.9602C30.28 20.0802 29.2266 19.6402 28 19.6402C26.7733 19.6402 25.72 20.0802 24.84 20.9602C23.96 21.8402 23.52 22.9068 23.52 24.1602C23.52 25.4135 23.96 26.4802 24.84 27.3602C25.72 28.2402 26.7733 28.6802 28 28.6802Z" fill="white"/>
</g>
<defs>
<clipPath id="clip0_302_521">
<rect width="24" height="24" fill="white" transform="matrix(1 0 0 -1 16 39.1602)"/>
</clipPath>
</defs>
</svg>
