<svg width="60" height="61" viewBox="0 0 60 61" fill="none" xmlns="http://www.w3.org/2000/svg">
<rect y="0.699951" width="60" height="60" rx="30" fill="#0D83FD" fill-opacity="0.08"/>
<g clip-path="url(#clip0_302_161)">
<path d="M18 23.7C18 23.54 18.0267 23.38 18.08 23.22C18.1333 22.8466 18.24 22.5 18.4 22.18C18.6133 21.7533 18.9333 21.3933 19.36 21.1C19.7867 20.8066 20.3467 20.66 21.04 20.66H39.04L39.44 20.74C39.8133 20.7933 40.16 20.9 40.48 21.06C40.9067 21.2733 41.2667 21.5933 41.56 22.02C41.8533 22.4466 42 23.0066 42 23.7V32.66L41.92 33.14C41.8667 33.5133 41.76 33.86 41.6 34.18C41.3867 34.6066 41.0667 34.9666 40.64 35.26C40.2133 35.5533 39.68 35.7 39.04 35.7H33.04C33.04 36.7133 33.1467 37.46 33.36 37.94H34.48C34.6933 37.94 34.88 38.02 35.04 38.18C35.2 38.34 35.28 38.5133 35.28 38.7C35.28 38.8866 35.2 39.06 35.04 39.22C34.88 39.38 34.6933 39.46 34.48 39.46H25.52C25.3067 39.46 25.12 39.38 24.96 39.22C24.8 39.06 24.72 38.8866 24.72 38.7C24.72 38.5133 24.8 38.34 24.96 38.18C25.12 38.02 25.3067 37.94 25.52 37.94H26.64C26.9067 37.46 27.04 36.7133 27.04 35.7H21.04L20.56 35.62C20.1867 35.5666 19.84 35.46 19.52 35.3C19.0933 35.0866 18.7333 34.7666 18.44 34.34C18.1467 33.9133 18 33.3533 18 32.66V23.7ZM20.08 22.42C19.92 22.5266 19.7867 22.7 19.68 22.94C19.5733 23.18 19.52 23.4333 19.52 23.7V32.66C19.52 33.0866 19.5733 33.3933 19.68 33.58C19.7867 33.7666 19.96 33.9133 20.2 34.02C20.44 34.1266 20.6933 34.18 20.96 34.18H39.04C39.4133 34.18 39.6933 34.1133 39.88 33.98C40.0667 33.8466 40.2133 33.6733 40.32 33.46C40.4267 33.2466 40.48 33.0066 40.48 32.74V23.7C40.48 23.3266 40.4133 23.0466 40.28 22.86C40.1467 22.6733 39.9733 22.5266 39.76 22.42C39.5467 22.3133 39.28 22.2333 38.96 22.18H21.04C20.6133 22.18 20.2933 22.26 20.08 22.42Z" fill="#0D83FD"/>
</g>
<defs>
<clipPath id="clip0_302_161">
<rect width="24" height="24" fill="white" transform="matrix(1 0 0 -1 18 41.7)"/>
</clipPath>
</defs>
</svg>
