<svg width="64" height="65" viewBox="0 0 64 65" fill="none" xmlns="http://www.w3.org/2000/svg">
<rect y="0.97998" width="64" height="64" rx="32" fill="#0D83FD" fill-opacity="0.08"/>
<g clip-path="url(#clip0_302_32)">
<path d="M23.7599 20.7C23.7599 20.4866 23.8266 20.3133 23.9599 20.18C24.0932 20.0466 24.2666 19.98 24.4799 19.98H39.5199C39.7332 19.98 39.9066 20.0466 40.0399 20.18C40.1732 20.3133 40.2399 20.4866 40.2399 20.7C40.2399 21.5533 40.2132 22.3266 40.1599 23.02C41.0132 23.18 41.7466 23.5133 42.3599 24.02C42.9732 24.5266 43.4132 25.1666 43.6799 25.94C43.9466 26.7133 44.0132 27.5 43.8799 28.3C43.7466 29.1 43.3999 29.8066 42.8399 30.42C42.2799 31.0333 41.6132 31.4733 40.8399 31.74C40.0666 32.0066 39.2799 32.06 38.4799 31.9C37.9466 33.18 37.2799 34.22 36.4799 35.02C35.7866 35.7666 35.0399 36.22 34.2399 36.38V39.66L36.3999 40.14C36.6666 40.2466 36.9332 40.38 37.1999 40.54L39.9199 42.62C40.0799 42.7266 40.1866 42.86 40.2399 43.02C40.2932 43.18 40.2932 43.3266 40.2399 43.46C40.1866 43.5933 40.0932 43.7133 39.9599 43.82C39.8266 43.9266 39.6799 43.98 39.5199 43.98H24.4799C24.3199 43.98 24.1732 43.9266 24.0399 43.82C23.9066 43.7133 23.8132 43.5933 23.7599 43.46C23.7066 43.3266 23.7066 43.18 23.7599 43.02C23.8132 42.86 23.9199 42.7266 24.0799 42.62L26.7999 40.54C27.0666 40.38 27.3332 40.2466 27.5999 40.14L29.7599 39.66V36.38C28.9599 36.22 28.2132 35.7666 27.5199 35.02C26.7199 34.22 26.0532 33.18 25.5199 31.9C24.7199 32.06 23.9332 32.0066 23.1599 31.74C22.3866 31.4733 21.7199 31.0333 21.1599 30.42C20.5999 29.8066 20.2532 29.1 20.1199 28.3C19.9866 27.5 20.0532 26.7133 20.3199 25.94C20.5866 25.1666 21.0266 24.5266 21.6399 24.02C22.2532 23.5133 22.9866 23.18 23.8399 23.02C23.7866 22.2733 23.7599 21.5 23.7599 20.7ZM23.9199 24.54C23.0666 24.7 22.4132 25.1133 21.9599 25.78C21.5066 26.4466 21.3466 27.1933 21.4799 28.02C21.6132 28.8466 22.0266 29.5 22.7199 29.98C23.4132 30.46 24.1599 30.62 24.9599 30.46C24.4266 28.7533 24.0799 26.78 23.9199 24.54ZM39.0399 30.46C39.8399 30.62 40.5866 30.46 41.2799 29.98C41.9732 29.5 42.3866 28.8466 42.5199 28.02C42.6532 27.1933 42.4932 26.4466 42.0399 25.78C41.5866 25.1133 40.9332 24.7 40.0799 24.54C39.9199 26.78 39.5732 28.7533 39.0399 30.46ZM25.2799 21.5C25.2799 22.2466 25.3066 22.9666 25.3599 23.66C25.5199 26.4866 25.9466 28.8333 26.6399 30.7C27.2266 32.2466 27.9466 33.3933 28.7999 34.14C29.3866 34.7266 29.9466 35.02 30.4799 35.02C30.6932 35.02 30.8799 35.0866 31.0399 35.22C31.1999 35.3533 31.2799 35.5266 31.2799 35.74V39.66C31.2799 39.98 31.1732 40.2733 30.9599 40.54C30.7466 40.8066 30.4532 40.9933 30.0799 41.1L27.9999 41.66C27.8932 41.66 27.7866 41.6866 27.6799 41.74L26.7199 42.46H37.2799L36.3199 41.74C36.2132 41.6866 36.1066 41.66 35.9999 41.66L33.9199 41.1C33.5466 40.9933 33.2532 40.8066 33.0399 40.54C32.8266 40.2733 32.7199 39.98 32.7199 39.66V35.74C32.7199 35.5266 32.7999 35.34 32.9599 35.18C33.1199 35.02 33.3066 34.94 33.5199 34.94C34.0532 34.94 34.6132 34.6733 35.1999 34.14C36.0532 33.3933 36.7732 32.2466 37.3599 30.7C38.0532 28.8333 38.4799 26.4866 38.6399 23.66C38.6932 22.9666 38.7199 22.2466 38.7199 21.5H25.2799Z" fill="#0D83FD"/>
</g>
<defs>
<clipPath id="clip0_302_32">
<rect width="24" height="24" fill="white" transform="matrix(1 0 0 -1 20 43.98)"/>
</clipPath>
</defs>
</svg>
