<svg width="60" height="61" viewBox="0 0 60 61" fill="none" xmlns="http://www.w3.org/2000/svg">
<rect y="0.199951" width="60" height="60" rx="30" fill="#0D83FD" fill-opacity="0.08"/>
<g clip-path="url(#clip0_302_181)">
<path d="M34.48 18.72C34.9066 18.72 35.2666 18.8666 35.56 19.16C35.8533 19.4533 36 19.7866 36 20.16V38.16C36 38.5866 35.8533 38.9466 35.56 39.24C35.2666 39.5333 34.9066 39.68 34.48 39.68H25.52C25.0933 39.68 24.7333 39.5333 24.44 39.24C24.1466 38.9466 24 38.5866 24 38.16V20.16C24 19.7866 24.1466 19.4533 24.44 19.16C24.7333 18.8666 25.0933 18.72 25.52 18.72H34.48ZM25.52 17.2C24.6666 17.2 23.9466 17.4933 23.36 18.08C22.7733 18.6666 22.48 19.3866 22.48 20.24V38.16C22.48 39.0133 22.7733 39.7333 23.36 40.32C23.9466 40.9066 24.6666 41.2 25.52 41.2H34.48C35.3333 41.2 36.0533 40.9066 36.64 40.32C37.2266 39.7333 37.52 39.0133 37.52 38.16V20.16C37.52 19.36 37.2266 18.6666 36.64 18.08C36.0533 17.4933 35.3333 17.2 34.48 17.2H25.52ZM30 38.16C30.4266 38.16 30.7866 38.0266 31.08 37.76C31.3733 37.4933 31.52 37.1466 31.52 36.72C31.52 36.2933 31.3733 35.9333 31.08 35.64C30.7866 35.3466 30.4266 35.2 30 35.2C29.5733 35.2 29.2133 35.3466 28.92 35.64C28.6266 35.9333 28.48 36.2933 28.48 36.72C28.48 37.1466 28.6266 37.4933 28.92 37.76C29.2133 38.0266 29.5733 38.16 30 38.16Z" fill="#0D83FD"/>
</g>
<defs>
<clipPath id="clip0_302_181">
<rect width="24" height="24" fill="white" transform="matrix(1 0 0 -1 18 41.2)"/>
</clipPath>
</defs>
</svg>
