<svg width="60" height="61" viewBox="0 0 60 61" fill="none" xmlns="http://www.w3.org/2000/svg">
<rect y="0.699951" width="60" height="60" rx="30" fill="#0D83FD" fill-opacity="0.08"/>
<g clip-path="url(#clip0_302_186)">
<path d="M42 29.7C42 31.6733 41.5467 33.5266 40.64 35.26C39.7333 36.9933 38.4667 38.42 36.84 39.54C35.2133 40.66 33.4133 41.3533 31.44 41.62L34.32 30.98C34.5333 30.2333 34.56 29.4733 34.4 28.7C34.24 27.9266 33.8933 27.2733 33.36 26.74H41.6C41.8667 27.7 42 28.6866 42 29.7ZM18 29.7C18 31.8333 18.5333 33.82 19.6 35.66C20.6667 37.5 22.1067 38.9666 23.92 40.06C25.7333 41.1533 27.7333 41.7 29.92 41.7L32 33.7C31.68 33.86 31.3333 33.9933 30.96 34.1C30.0533 34.3133 29.1733 34.2333 28.32 33.86C27.7333 33.6466 27.2267 33.3 26.8 32.82L18.96 24.98C18.32 26.5266 18 28.1 18 29.7ZM25.52 29.46L19.68 23.62C20.8533 21.6466 22.44 20.1266 24.44 19.06C26.44 17.9933 28.5867 17.5533 30.88 17.74C33.1733 17.9266 35.24 18.6866 37.08 20.02C38.92 21.3533 40.2667 23.0866 41.12 25.22H30.08C29.44 25.1666 28.8267 25.2733 28.24 25.54C27.44 25.9133 26.8 26.4466 26.32 27.14C25.84 27.8333 25.5733 28.6066 25.52 29.46ZM30 32.66C30.8533 32.66 31.5733 32.38 32.16 31.82C32.7467 31.26 33.04 30.5533 33.04 29.7C33.04 28.8466 32.7467 28.1266 32.16 27.54C31.5733 26.9533 30.8533 26.66 30 26.66C29.1467 26.66 28.4267 26.9533 27.84 27.54C27.2533 28.1266 26.9733 28.8466 27 29.7C27.0267 30.5533 27.32 31.26 27.88 31.82C28.44 32.38 29.1467 32.66 30 32.66Z" fill="#0D83FD"/>
</g>
<defs>
<clipPath id="clip0_302_186">
<rect width="24" height="24" fill="white" transform="matrix(1 0 0 -1 18 41.7)"/>
</clipPath>
</defs>
</svg>
