<svg width="60" height="61" viewBox="0 0 60 61" fill="none" xmlns="http://www.w3.org/2000/svg">
<rect y="0.82959" width="60" height="60" rx="8" fill="#0D83FD" fill-opacity="0.1"/>
<g clip-path="url(#clip0_302_350)">
<path d="M30.0001 16.0796C30.1868 16.0796 30.3579 16.1263 30.5134 16.2196C30.669 16.3129 30.7779 16.4529 30.8401 16.6396L31.8668 19.5329H40.5468C40.9823 19.5329 41.3712 19.704 41.7134 20.0463C42.0557 20.3885 42.2268 20.8085 42.2268 21.3063V33.5329C42.2268 34.0307 42.0557 34.4507 41.7134 34.7929C41.3712 35.1351 40.9823 35.3063 40.5468 35.3063H37.2801L39.6134 42.0263C39.6757 42.2751 39.6445 42.5085 39.5201 42.7263C39.3957 42.944 39.2245 43.084 39.0068 43.1463C38.789 43.2085 38.5712 43.1929 38.3534 43.0996C38.1357 43.0063 37.9957 42.8351 37.9334 42.5863L35.4134 35.3063H30.8401V40.5329C30.8401 40.7818 30.7623 40.9996 30.6068 41.1863C30.4512 41.3729 30.249 41.4663 30.0001 41.4663C29.7512 41.4663 29.549 41.3729 29.3934 41.1863C29.2379 40.9996 29.1601 40.7818 29.1601 40.5329V35.3063H24.5868L22.0668 42.5863C22.0045 42.8351 21.8645 43.0063 21.6468 43.0996C21.429 43.1929 21.2112 43.2085 20.9934 43.1463C20.7757 43.084 20.6045 42.944 20.4801 42.7263C20.3557 42.5085 20.3245 42.2751 20.3868 42.0263L22.7201 35.3063H19.5468C19.049 35.3063 18.629 35.1351 18.2868 34.7929C17.9445 34.4507 17.7734 34.0307 17.7734 33.5329V21.3063C17.7734 20.8085 17.9445 20.3885 18.2868 20.0463C18.629 19.704 19.0179 19.5329 19.4534 19.5329H28.1334L29.1601 16.6396C29.2223 16.4529 29.3312 16.3129 29.4868 16.2196C29.6423 16.1263 29.8134 16.0796 30.0001 16.0796ZM19.5468 21.3063V33.5329H40.5468V21.3063H19.5468Z" fill="#0D83FD"/>
</g>
<defs>
<clipPath id="clip0_302_350">
<rect width="28" height="28" fill="white" transform="matrix(1 0 0 -1 16 44.0796)"/>
</clipPath>
</defs>
</svg>
