<svg width="64" height="65" viewBox="0 0 64 65" fill="none" xmlns="http://www.w3.org/2000/svg">
<rect y="0.97998" width="64" height="64" rx="32" fill="#0D83FD" fill-opacity="0.08"/>
<g clip-path="url(#clip0_302_44)">
<path d="M20 19.98H21.52V42.46H44V43.98H20V19.98ZM42.24 24.62C42.4 24.78 42.4933 24.9666 42.52 25.18C42.5467 25.3933 42.48 25.58 42.32 25.74L35.6 33.98C35.44 34.14 35.2533 34.22 35.04 34.22C34.8267 34.22 34.64 34.14 34.48 33.98L30.56 30.14L25.12 37.66C24.96 37.82 24.7867 37.9133 24.6 37.94C24.4133 37.9666 24.24 37.9266 24.08 37.82C23.92 37.7133 23.8267 37.5533 23.8 37.34C23.7733 37.1266 23.8133 36.94 23.92 36.78L29.92 28.54C30.0267 28.3266 30.2 28.22 30.44 28.22C30.68 28.22 30.88 28.3 31.04 28.46L34.96 32.38L41.2 24.78C41.3067 24.62 41.4667 24.5266 41.68 24.5C41.8933 24.4733 42.08 24.5133 42.24 24.62Z" fill="#0D83FD"/>
</g>
<defs>
<clipPath id="clip0_302_44">
<rect width="24" height="24" fill="white" transform="matrix(1 0 0 -1 20 43.98)"/>
</clipPath>
</defs>
</svg>
