<svg width="60" height="61" viewBox="0 0 60 61" fill="none" xmlns="http://www.w3.org/2000/svg">
<rect y="0.439941" width="60" height="60" rx="8" fill="#0D83FD" fill-opacity="0.1"/>
<g clip-path="url(#clip0_302_340)">
<path d="M26.5467 21.8502C26.5467 21.1035 26.7956 20.4657 27.2933 19.9368C27.7911 19.4079 28.4133 19.1746 29.16 19.2368H30.84C31.5867 19.1746 32.2244 19.4079 32.7533 19.9368C33.2822 20.4657 33.5156 21.1035 33.4533 21.8502V23.5302C33.4533 24.2768 33.2044 24.8991 32.7067 25.3968C32.2089 25.8946 31.5867 26.1435 30.84 26.1435V27.9168H40.5467C40.7333 27.9168 40.92 28.0102 41.1067 28.1968C41.2933 28.3835 41.3867 28.6013 41.3867 28.8502V30.5302C41.3867 30.7791 41.2933 30.9968 41.1067 31.1835C40.92 31.3702 40.7178 31.4635 40.5 31.4635C40.2822 31.4635 40.08 31.3702 39.8933 31.1835C39.7067 30.9968 39.6133 30.7791 39.6133 30.5302V29.6902H30.84V30.5302C30.84 30.7791 30.7622 30.9968 30.6067 31.1835C30.4511 31.3702 30.2489 31.4635 30 31.4635C29.7511 31.4635 29.5489 31.3702 29.3933 31.1835C29.2378 30.9968 29.16 30.7791 29.16 30.5302V29.6902H20.3867V30.5302C20.3867 30.7791 20.2933 30.9968 20.1067 31.1835C19.92 31.3702 19.7178 31.4635 19.5 31.4635C19.2822 31.4635 19.08 31.3702 18.8933 31.1835C18.7067 30.9968 18.6133 30.7791 18.6133 30.5302V28.8502C18.6133 28.6013 18.7067 28.3835 18.8933 28.1968C19.08 28.0102 19.2978 27.9168 19.5467 27.9168H29.16V26.1435C28.4133 26.2057 27.7911 25.9724 27.2933 25.4435C26.7956 24.9146 26.5467 24.2768 26.5467 23.5302V21.8502ZM30.84 24.4635C31.0889 24.4635 31.3067 24.3702 31.4933 24.1835C31.68 23.9968 31.7733 23.7791 31.7733 23.5302V21.8502C31.7733 21.6013 31.68 21.3835 31.4933 21.1968C31.3067 21.0102 31.0889 20.9168 30.84 20.9168H29.16C28.9111 20.9168 28.6933 21.0102 28.5067 21.1968C28.32 21.3835 28.2267 21.6013 28.2267 21.8502V23.5302C28.2267 23.7791 28.32 23.9968 28.5067 24.1835C28.6933 24.3702 28.9111 24.4635 29.16 24.4635H30.84ZM16 35.8502C16 35.1035 16.2489 34.4813 16.7467 33.9835C17.2444 33.4857 17.8667 33.2368 18.6133 33.2368H20.3867C21.1333 33.1746 21.7556 33.4079 22.2533 33.9368C22.7511 34.4657 23 35.1035 23 35.8502V37.5302C23 38.2768 22.7511 38.8991 22.2533 39.3968C21.7556 39.8946 21.1333 40.1435 20.3867 40.1435H18.6133C17.8667 40.1435 17.2444 39.8946 16.7467 39.3968C16.2489 38.8991 16 38.2768 16 37.5302V35.8502ZM18.6133 34.9168C18.3644 34.9168 18.1622 35.0102 18.0067 35.1968C17.8511 35.3835 17.7733 35.6013 17.7733 35.8502V37.5302C17.7733 37.7791 17.8511 37.9968 18.0067 38.1835C18.1622 38.3702 18.3644 38.4635 18.6133 38.4635H20.3867C20.6356 38.4635 20.8378 38.3702 20.9933 38.1835C21.1489 37.9968 21.2267 37.7791 21.2267 37.5302V35.8502C21.2267 35.6013 21.1489 35.3835 20.9933 35.1968C20.8378 35.0102 20.6356 34.9168 20.3867 34.9168H18.6133ZM26.5467 35.8502C26.5467 35.1035 26.7956 34.4813 27.2933 33.9835C27.7911 33.4857 28.4133 33.2368 29.16 33.2368H30.84C31.5867 33.1746 32.2244 33.4079 32.7533 33.9368C33.2822 34.4657 33.5156 35.1035 33.4533 35.8502V37.5302C33.4533 38.2768 33.2044 38.8991 32.7067 39.3968C32.2089 39.8946 31.5867 40.1435 30.84 40.1435H29.16C28.4133 40.2057 27.7911 39.9724 27.2933 39.4435C26.7956 38.9146 26.5467 38.2768 26.5467 37.5302V35.8502ZM29.16 34.9168C28.9111 34.9168 28.6933 35.0102 28.5067 35.1968C28.32 35.3835 28.2267 35.6013 28.2267 35.8502V37.5302C28.2267 37.7791 28.32 37.9968 28.5067 38.1835C28.6933 38.3702 28.9111 38.4635 29.16 38.4635H30.84C31.0889 38.4635 31.3067 38.3702 31.4933 38.1835C31.68 37.9968 31.7733 37.7791 31.7733 37.5302V35.8502C31.7733 35.6013 31.68 35.3835 31.4933 35.1968C31.3067 35.0102 31.0889 34.9168 30.84 34.9168H29.16ZM37 35.8502C37 35.1035 37.2489 34.4657 37.7467 33.9368C38.2444 33.4079 38.8667 33.1746 39.6133 33.2368H41.3867C42.1333 33.1746 42.7556 33.4079 43.2533 33.9368C43.7511 34.4657 44 35.1035 44 35.8502V37.5302C44 38.2768 43.7511 38.8991 43.2533 39.3968C42.7556 39.8946 42.1333 40.1435 41.3867 40.1435H39.6133C38.8667 40.2057 38.2444 39.9724 37.7467 39.4435C37.2489 38.9146 37 38.2768 37 37.5302V35.8502ZM39.6133 34.9168C39.3644 34.9168 39.1622 35.0102 39.0067 35.1968C38.8511 35.3835 38.7733 35.6013 38.7733 35.8502V37.5302C38.7733 37.7791 38.8511 37.9968 39.0067 38.1835C39.1622 38.3702 39.3644 38.4635 39.6133 38.4635H41.3867C41.6356 38.4635 41.8378 38.3702 41.9933 38.1835C42.1489 37.9968 42.2267 37.7791 42.2267 37.5302V35.8502C42.2267 35.6013 42.1489 35.3835 41.9933 35.1968C41.8378 35.0102 41.6356 34.9168 41.3867 34.9168H39.6133Z" fill="#0D83FD"/>
</g>
<defs>
<clipPath id="clip0_302_340">
<rect width="28" height="28" fill="white" transform="matrix(1 0 0 -1 16 43.6899)"/>
</clipPath>
</defs>
</svg>
