<svg width="60" height="61" viewBox="0 0 60 61" fill="none" xmlns="http://www.w3.org/2000/svg">
<rect y="0.699951" width="60" height="60" rx="30" fill="#0D83FD" fill-opacity="0.08"/>
<g clip-path="url(#clip0_302_171)">
<path d="M42 29.6999C41.84 29.4333 41.6533 29.1399 41.44 28.8199C41.0133 28.1266 40.5067 27.4599 39.92 26.8199C39.1733 25.8599 38.3467 25.0333 37.44 24.3399C36.3733 23.4866 35.28 22.8199 34.16 22.3399C32.7733 21.7533 31.3867 21.4599 30 21.4599C28.6133 21.4599 27.2267 21.7533 25.84 22.3399C24.72 22.8199 23.6267 23.4866 22.56 24.3399C21.7067 25.0333 20.88 25.8599 20.08 26.8199C19.4933 27.4599 18.9867 28.1266 18.56 28.8199L18 29.6999L18.56 30.5799C18.9867 31.2733 19.4933 31.9399 20.08 32.5799C20.88 33.5399 21.7067 34.3666 22.56 35.0599C23.6267 35.9133 24.72 36.5799 25.84 37.0599C27.2267 37.6466 28.6133 37.9399 30 37.9399C31.3867 37.9399 32.7733 37.6466 34.16 37.0599C35.28 36.5799 36.3733 35.9133 37.44 35.0599C38.3467 34.3666 39.1733 33.5399 39.92 32.5799C40.5067 31.9399 41.0133 31.2733 41.44 30.5799L42 29.6999ZM19.76 29.6999C20.5067 28.5799 21.3333 27.5666 22.24 26.6599C23.36 25.5399 24.5067 24.6866 25.68 24.0999C27.0667 23.3533 28.5067 22.9799 30 22.9799C31.4933 22.9799 32.9333 23.3533 34.32 24.0999C35.4933 24.6866 36.64 25.5399 37.76 26.6599C38.6667 27.5666 39.4933 28.5799 40.24 29.6999L39.92 30.0999C39.28 31.0599 38.56 31.9399 37.76 32.7399C36.64 33.8599 35.4933 34.7133 34.32 35.2999C32.9333 36.0466 31.4933 36.4199 30 36.4199C28.5067 36.4199 27.0667 36.0466 25.68 35.2999C24.5067 34.7133 23.36 33.8599 22.24 32.7399C21.3333 31.8333 20.5067 30.8199 19.76 29.6999ZM30 25.9399C28.9867 25.9399 28.1067 26.3133 27.36 27.0599C26.6133 27.8066 26.24 28.6866 26.24 29.6999C26.24 30.7133 26.6133 31.5933 27.36 32.3399C28.1067 33.0866 28.9867 33.4599 30 33.4599C31.0133 33.4599 31.8933 33.0866 32.64 32.3399C33.3867 31.5933 33.76 30.7133 33.76 29.6999C33.76 28.6866 33.3867 27.8066 32.64 27.0599C31.8933 26.3133 31.0133 25.9399 30 25.9399ZM24.72 29.6999C24.72 28.7399 24.96 27.8599 25.44 27.0599C25.92 26.2599 26.56 25.6199 27.36 25.1399C28.16 24.6599 29.04 24.4199 30 24.4199C30.96 24.4199 31.84 24.6599 32.64 25.1399C33.44 25.6199 34.08 26.2599 34.56 27.0599C35.04 27.8599 35.28 28.7399 35.28 29.6999C35.28 30.6599 35.04 31.5399 34.56 32.3399C34.08 33.1399 33.44 33.7799 32.64 34.2599C31.84 34.7399 30.96 34.9799 30 34.9799C29.04 34.9799 28.16 34.7399 27.36 34.2599C26.56 33.7799 25.92 33.1399 25.44 32.3399C24.96 31.5399 24.72 30.6599 24.72 29.6999Z" fill="#0D83FD"/>
</g>
<defs>
<clipPath id="clip0_302_171">
<rect width="24" height="24" fill="white" transform="matrix(1 0 0 -1 18 41.7)"/>
</clipPath>
</defs>
</svg>
