<svg width="60" height="61" viewBox="0 0 60 61" fill="none" xmlns="http://www.w3.org/2000/svg">
<rect y="0.699951" width="60" height="60" rx="30" fill="#0D83FD" fill-opacity="0.08"/>
<g clip-path="url(#clip0_302_176)">
<path d="M39.04 19.22C39.4133 19.22 39.7467 19.3666 40.04 19.66C40.3333 19.9533 40.48 20.2866 40.48 20.66V38.66C40.48 39.0866 40.3333 39.4466 40.04 39.74C39.7467 40.0333 39.4133 40.18 39.04 40.18H21.04C20.6133 40.18 20.2533 40.0333 19.96 39.74C19.6667 39.4466 19.52 39.0866 19.52 38.66V20.66C19.52 20.2866 19.6667 19.9533 19.96 19.66C20.2533 19.3666 20.5867 19.22 20.96 19.22H39.04ZM21.04 17.7C20.1867 17.7 19.4667 17.9933 18.88 18.58C18.2933 19.1666 18 19.8866 18 20.74V38.66C18 39.5133 18.2933 40.2333 18.88 40.82C19.4667 41.4066 20.16 41.7 20.96 41.7H39.04C39.84 41.7 40.5333 41.4066 41.12 40.82C41.7067 40.2333 42 39.5133 42 38.66V20.66C42 19.86 41.7067 19.1666 41.12 18.58C40.5333 17.9933 39.8133 17.7 38.96 17.7H21.04ZM28.32 24.66C28.4267 24.82 28.48 25.0066 28.48 25.22C28.48 25.4333 28.4267 25.5933 28.32 25.7L24.32 29.7L28.32 33.7C28.4267 33.8066 28.48 33.9666 28.48 34.18C28.48 34.3933 28.4133 34.58 28.28 34.74C28.1467 34.9 27.9733 34.98 27.76 34.98C27.5467 34.98 27.36 34.9 27.2 34.74L22.72 30.26C22.56 30.1 22.48 29.9133 22.48 29.7C22.48 29.4866 22.56 29.3 22.72 29.14L27.2 24.66C27.36 24.5 27.5467 24.42 27.76 24.42C27.9733 24.42 28.16 24.5 28.32 24.66ZM31.68 24.66C31.5733 24.82 31.52 25.0066 31.52 25.22C31.52 25.4333 31.5733 25.5933 31.68 25.7L35.68 29.7L31.68 33.7C31.5733 33.8066 31.52 33.9666 31.52 34.18C31.52 34.3933 31.5867 34.58 31.72 34.74C31.8533 34.9 32.0267 34.98 32.24 34.98C32.4533 34.98 32.64 34.9 32.8 34.74L37.28 30.26C37.44 30.1 37.52 29.9133 37.52 29.7C37.52 29.4866 37.44 29.3 37.28 29.14L32.8 24.66C32.64 24.5 32.4533 24.42 32.24 24.42C32.0267 24.42 31.84 24.5 31.68 24.66Z" fill="#0D83FD"/>
</g>
<defs>
<clipPath id="clip0_302_176">
<rect width="24" height="24" fill="white" transform="matrix(1 0 0 -1 18 41.7)"/>
</clipPath>
</defs>
</svg>
