<svg width="56" height="57" viewBox="0 0 56 57" fill="none" xmlns="http://www.w3.org/2000/svg">
<rect y="0.75" width="56" height="56" rx="28" fill="white" fill-opacity="0.15"/>
<g clip-path="url(#clip0_302_528)">
<path d="M21.5202 17.7498C21.3068 17.4832 21.0535 17.3498 20.7602 17.3498C20.4668 17.3498 20.1868 17.4565 19.9202 17.6698L18.4002 19.1898C18.0268 19.5632 17.7868 19.9898 17.6802 20.4698C17.5735 20.9498 17.6002 21.4032 17.7602 21.8298C19.0935 25.6165 21.1735 28.9232 24.0002 31.7498C26.8268 34.5765 30.1335 36.6565 33.9202 37.9898C34.3468 38.1498 34.8002 38.1765 35.2802 38.0698C35.7602 37.9632 36.1868 37.7232 36.5602 37.3498L38.0802 35.8298C38.2935 35.5632 38.4002 35.2832 38.4002 34.9898C38.4002 34.6965 38.2668 34.4698 38.0002 34.3098L34.5602 31.5898C34.2935 31.3765 34.0002 31.3232 33.6802 31.4298L30.4002 32.2298C29.9735 32.3365 29.5335 32.3232 29.0802 32.1898C28.6268 32.0565 28.2402 31.8298 27.9202 31.5098L24.2402 27.8298C23.9202 27.5098 23.6935 27.1232 23.5602 26.6698C23.4268 26.2165 23.4135 25.7765 23.5202 25.3498L24.3202 22.0698C24.4268 21.7498 24.3735 21.4565 24.1602 21.1898L21.5202 17.7498ZM18.8002 16.5498C19.3868 15.9632 20.0668 15.6965 20.8402 15.7498C21.6135 15.8032 22.2402 16.1498 22.7202 16.7898L25.4402 20.2298C25.7068 20.5498 25.8802 20.9098 25.9602 21.3098C26.0402 21.7098 26.0268 22.0965 25.9202 22.4698L25.1202 25.7498C25.0135 26.1232 25.0935 26.4432 25.3602 26.7098L29.0402 30.3898C29.3068 30.6565 29.6268 30.7365 30.0002 30.6298L33.2802 29.8298C33.6535 29.7232 34.0402 29.7098 34.4402 29.7898C34.8402 29.8698 35.2002 30.0432 35.5202 30.3098L38.9602 33.0298C39.6002 33.5098 39.9468 34.1365 40.0002 34.9098C40.0535 35.6832 39.7868 36.3632 39.2002 36.9498L37.6802 38.4698C37.0935 39.0565 36.4135 39.4432 35.6402 39.6298C34.8668 39.8165 34.1068 39.7765 33.3602 39.5098C29.3602 38.1232 25.8535 35.9232 22.8402 32.9098C19.8268 29.8965 17.6268 26.3898 16.2402 22.3898C15.9735 21.6432 15.9335 20.8832 16.1202 20.1098C16.3068 19.3365 16.6935 18.6565 17.2802 18.0698L18.8002 16.5498Z" fill="white"/>
</g>
<defs>
<clipPath id="clip0_302_528">
<rect width="24" height="24" fill="white" transform="matrix(1 0 0 -1 16 39.75)"/>
</clipPath>
</defs>
</svg>
