<svg width="60" height="61" viewBox="0 0 60 61" fill="none" xmlns="http://www.w3.org/2000/svg">
<rect y="0.82959" width="60" height="60" rx="8" fill="#0D83FD" fill-opacity="0.1"/>
<g clip-path="url(#clip0_302_360)">
<path d="M23.0001 35.3063C23.0001 34.8085 23.1712 34.3885 23.5134 34.0463C23.8557 33.704 24.2757 33.5485 24.7734 33.5796C25.2712 33.6107 25.6757 33.7818 25.9868 34.0929C26.2979 34.404 26.4845 34.8085 26.5468 35.3063V37.0796C26.4845 37.5774 26.2979 37.9974 25.9868 38.3396C25.6757 38.6818 25.2712 38.8529 24.7734 38.8529C24.2757 38.8529 23.8557 38.6818 23.5134 38.3396C23.1712 37.9974 23.0001 37.5774 23.0001 37.0796V35.3063ZM33.5468 28.3063C33.5468 27.8085 33.7023 27.3885 34.0134 27.0463C34.3245 26.704 34.729 26.5329 35.2268 26.5329C35.7245 26.5329 36.1445 26.704 36.4868 27.0463C36.829 27.3885 37.0001 27.8085 37.0001 28.3063V37.0796C37.0001 37.5774 36.829 37.9974 36.4868 38.3396C36.1445 38.6818 35.7245 38.8529 35.2268 38.8529C34.729 38.8529 34.309 38.6818 33.9668 38.3396C33.6245 37.9974 33.4534 37.5774 33.4534 37.0796L33.5468 28.3063ZM28.2268 31.8529C28.2268 31.3551 28.3979 30.9351 28.7401 30.5929C29.0823 30.2507 29.5023 30.0796 30.0001 30.0796C30.4979 30.0796 30.9179 30.2507 31.2601 30.5929C31.6023 30.9351 31.7734 31.3551 31.7734 31.8529V37.0796C31.7734 37.5774 31.6023 37.9974 31.2601 38.3396C30.9179 38.6818 30.4979 38.8529 30.0001 38.8529C29.5023 38.8529 29.0823 38.6818 28.7401 38.3396C28.3979 37.9974 28.2268 37.5774 28.2268 37.0796V31.8529ZM23.0001 18.6929H21.2268C20.2934 18.6929 19.4845 19.0351 18.8001 19.7196C18.1157 20.404 17.7734 21.244 17.7734 22.2396V40.5329C17.7734 41.5285 18.1157 42.3685 18.8001 43.0529C19.4845 43.7374 20.2934 44.0796 21.2268 44.0796H38.7734C39.7068 44.0796 40.5157 43.7374 41.2001 43.0529C41.8845 42.3685 42.2268 41.5285 42.2268 40.5329V22.2396C42.2268 21.244 41.8845 20.404 41.2001 19.7196C40.5157 19.0351 39.7068 18.6929 38.7734 18.6929H37.0001V20.4663H38.7734C39.2712 20.4663 39.6912 20.6374 40.0334 20.9796C40.3757 21.3218 40.5468 21.7418 40.5468 22.2396V40.5329C40.5468 41.0307 40.3757 41.4507 40.0334 41.7929C39.6912 42.1351 39.2712 42.3063 38.7734 42.3063H21.2268C20.729 42.3063 20.3245 42.1351 20.0134 41.7929C19.7023 41.4507 19.5468 41.0307 19.5468 40.5329V22.2396C19.5468 21.7418 19.7023 21.3218 20.0134 20.9796C20.3245 20.6374 20.729 20.4663 21.2268 20.4663H23.0001V18.6929ZM32.6134 17.8529C32.8623 17.8529 33.0801 17.9307 33.2668 18.0863C33.4534 18.2418 33.5468 18.444 33.5468 18.6929V20.4663C33.5468 20.7151 33.4534 20.9174 33.2668 21.0729C33.0801 21.2285 32.8623 21.3063 32.6134 21.3063H27.3868C27.1379 21.3063 26.9357 21.2285 26.7801 21.0729C26.6245 20.9174 26.5157 20.7151 26.4534 20.4663V18.6929C26.5157 18.444 26.6245 18.2418 26.7801 18.0863C26.9357 17.9307 27.1379 17.8529 27.3868 17.8529H32.6134ZM27.3868 16.0796C26.6401 16.0796 26.0179 16.3285 25.5201 16.8263C25.0223 17.324 24.7734 17.9463 24.7734 18.6929V20.4663C24.7734 21.2129 25.0223 21.8351 25.5201 22.3329C26.0179 22.8307 26.6401 23.0796 27.3868 23.0796H32.6134C33.3601 23.0796 33.9823 22.8307 34.4801 22.3329C34.9779 21.8351 35.2268 21.2129 35.2268 20.4663V18.6929C35.2268 17.9463 34.9779 17.324 34.4801 16.8263C33.9823 16.3285 33.3601 16.0796 32.6134 16.0796H27.3868Z" fill="#0D83FD"/>
</g>
<defs>
<clipPath id="clip0_302_360">
<rect width="28" height="28" fill="white" transform="matrix(1 0 0 -1 16 44.0796)"/>
</clipPath>
</defs>
</svg>
