<svg width="64" height="65" viewBox="0 0 64 65" fill="none" xmlns="http://www.w3.org/2000/svg">
<rect y="0.97998" width="64" height="64" rx="32" fill="#0D83FD" fill-opacity="0.08"/>
<g clip-path="url(#clip0_302_38)">
<path d="M29.76 21.5C29.12 21.5 28.5867 21.7133 28.16 22.14C27.7333 22.5666 27.52 23.1 27.52 23.74V24.46H22.24C21.6 24.46 21.0667 24.6866 20.64 25.14C20.2133 25.5933 20 26.1133 20 26.7V38.7C20 39.34 20.2133 39.8866 20.64 40.34C21.0667 40.7933 21.6 41.02 22.24 41.02H41.76C42.4 40.9666 42.9333 40.7266 43.36 40.3C43.7867 39.8733 44 39.34 44 38.7V26.7C44 26.1133 43.7867 25.5933 43.36 25.14C42.9333 24.6866 42.4 24.46 41.76 24.46H36.48V23.74C36.48 23.1 36.2667 22.5666 35.84 22.14C35.4133 21.7133 34.88 21.5 34.24 21.5H29.76ZM29.76 22.94H34.24C34.4533 22.94 34.64 23.02 34.8 23.18C34.96 23.34 35.04 23.5266 35.04 23.74V24.46H29.04V23.74C29.04 23.5266 29.1067 23.34 29.24 23.18C29.3733 23.02 29.5467 22.94 29.76 22.94ZM32.56 33.34L42.48 30.7V38.7C42.48 38.9133 42.4133 39.1 42.28 39.26C42.1467 39.42 41.9733 39.5 41.76 39.5H22.24C22.0267 39.5 21.8533 39.42 21.72 39.26C21.5867 39.1 21.52 38.9133 21.52 38.7V30.7L31.44 33.34C31.8133 33.4466 32.1867 33.4466 32.56 33.34ZM22.24 25.98H41.76C41.9733 25.98 42.1467 26.0466 42.28 26.18C42.4133 26.3133 42.48 26.4866 42.48 26.7V29.18L32.16 31.9C32.0533 31.9533 31.9467 31.9533 31.84 31.9L21.52 29.18V26.7C21.52 26.4866 21.5867 26.3133 21.72 26.18C21.8533 26.0466 22.0267 25.98 22.24 25.98Z" fill="#0D83FD"/>
</g>
<defs>
<clipPath id="clip0_302_38">
<rect width="24" height="24" fill="white" transform="matrix(1 0 0 -1 20 43.98)"/>
</clipPath>
</defs>
</svg>
