<svg width="60" height="61" viewBox="0 0 60 61" fill="none" xmlns="http://www.w3.org/2000/svg">
<rect y="0.439941" width="60" height="60" rx="8" fill="#0D83FD" fill-opacity="0.1"/>
<g clip-path="url(#clip0_302_330)">
<path d="M26.5467 19.1431C26.6711 19.2053 26.8111 19.2831 26.9667 19.3764C27.1222 19.4697 27.2311 19.6097 27.2933 19.7964L33.5467 36.7831L36.16 29.4097C36.2222 29.2231 36.3311 29.0831 36.4867 28.9897C36.6422 28.8964 36.8133 28.8497 37 28.8497H43.16C43.4089 28.8497 43.6111 28.9275 43.7667 29.0831C43.9222 29.2386 44 29.4408 44 29.6897C44 29.9386 43.9222 30.1408 43.7667 30.2964C43.6111 30.452 43.4089 30.5297 43.16 30.5297H37.6533L34.2933 39.5831C34.2311 39.7697 34.1222 39.9097 33.9667 40.0031C33.8111 40.0964 33.6556 40.1431 33.5 40.1431C33.3444 40.1431 33.1889 40.0964 33.0333 40.0031C32.8778 39.9097 32.7689 39.7697 32.7067 39.5831L26.5467 22.5964L23.84 29.9697C23.7778 30.1564 23.6689 30.2964 23.5133 30.3897C23.3578 30.4831 23.1867 30.5297 23 30.5297H16.84C16.5911 30.5297 16.3889 30.452 16.2333 30.2964C16.0778 30.1408 16 29.9386 16 29.6897C16 29.4408 16.0778 29.2386 16.2333 29.0831C16.3889 28.9275 16.5911 28.8497 16.84 28.8497H22.3467L25.7067 19.7964C25.7689 19.6097 25.8778 19.4697 26.0333 19.3764C26.1889 19.2831 26.3289 19.2053 26.4533 19.1431H26.5467Z" fill="#0D83FD"/>
</g>
<defs>
<clipPath id="clip0_302_330">
<rect width="28" height="28" fill="white" transform="matrix(1 0 0 -1 16 43.6899)"/>
</clipPath>
</defs>
</svg>
