<svg width="60" height="61" viewBox="0 0 60 61" fill="none" xmlns="http://www.w3.org/2000/svg">
<rect y="0.199951" width="60" height="60" rx="30" fill="#0D83FD" fill-opacity="0.08"/>
<g clip-path="url(#clip0_302_166)">
<path d="M41.68 17.9999C41.4666 17.7866 41.16 17.6133 40.76 17.4799C40.36 17.3466 39.9466 17.2533 39.52 17.1999C38.5066 17.1466 37.3866 17.2533 36.16 17.5199C34.72 17.7866 33.3066 18.2399 31.92 18.8799C30.32 19.6799 28.84 20.6666 27.48 21.8399C26.12 23.0133 24.9333 24.3733 23.92 25.9199C23.0133 27.2533 22.3333 28.5866 21.88 29.9199C21.4266 31.2533 21.2 32.3999 21.2 33.3599C21.2 33.8933 21.28 34.3466 21.44 34.7199L21.52 34.8799C20.3466 36.5333 19.2266 38.2399 18.16 39.9999C18 40.1599 17.9466 40.3466 18 40.5599C18.0533 40.7733 18.1733 40.9466 18.36 41.0799C18.5466 41.2133 18.7466 41.2533 18.96 41.1999C19.1733 41.1466 19.3333 41.0133 19.44 40.7999C20.4533 39.1466 21.52 37.5199 22.64 35.9199C23.0666 36.1333 23.5466 36.2399 24.08 36.2399C24.88 36.1866 25.7333 35.9466 26.64 35.5199C28.7733 34.5066 30.9333 32.6666 33.12 29.9999L35.44 27.6799C35.5466 27.5199 35.6 27.3333 35.6 27.1199C35.6 26.9066 35.5466 26.7199 35.44 26.5599L34.32 25.4399L36.24 25.7599C36.5066 25.8133 36.7466 25.7599 36.96 25.5999L37.92 24.5599C39.2 23.2266 40.0933 22.2533 40.6 21.6399C41.1066 21.0266 41.4666 20.4799 41.68 19.9999C42 19.3599 42.0533 18.7733 41.84 18.2399C41.84 18.1333 41.7866 18.0533 41.68 17.9999ZM23.6 34.6399C26.3733 30.9066 29.1733 27.7866 32 25.2799L33.76 27.1199L32 28.9599C29.92 31.4666 27.92 33.1733 26 34.0799C25.2533 34.4533 24.5866 34.6399 24 34.6399C23.8933 34.6399 23.76 34.6399 23.6 34.6399ZM33.76 23.7599C35.7866 22.1599 37.8666 20.8799 40 19.9199L39.44 20.7199C38.96 21.2533 38.1066 22.1333 36.88 23.3599L36.16 24.1599L33.76 23.7599ZM38.8 18.7999C35.8133 20.2399 32.88 22.2933 30 24.9599C27.5466 27.2533 25.12 29.9999 22.72 33.1999C22.72 32.4533 22.9066 31.5466 23.28 30.4799C23.7066 29.2533 24.32 28.0266 25.12 26.7999C26.08 25.4133 27.2 24.1599 28.48 23.0399C29.76 21.9199 31.12 21.0133 32.56 20.3199C33.84 19.7333 35.12 19.3066 36.4 19.0399C37.2 18.8799 38 18.7999 38.8 18.7999Z" fill="#0D83FD"/>
</g>
<defs>
<clipPath id="clip0_302_166">
<rect width="24" height="24" fill="white" transform="matrix(1 0 0 -1 18 41.2)"/>
</clipPath>
</defs>
</svg>
