<svg width="19" height="11" viewBox="0 0 19 11" fill="none" xmlns="http://www.w3.org/2000/svg">
<path d="M14.4667 1.49666C14.5556 1.36333 14.6 1.20777 14.6 1.02999C14.6 0.852215 14.5444 0.70777 14.4333 0.596659C14.3222 0.485548 14.1778 0.429992 14 0.429992C13.8222 0.429992 13.6667 0.474437 13.5333 0.563326L5.26667 8.89666L1.33333 4.96333C1.15556 4.78555 0.944444 4.72999 0.7 4.79666C0.455556 4.86333 0.311111 5.00777 0.266667 5.22999C0.222222 5.45221 0.266667 5.65221 0.4 5.82999L4.8 10.23C4.93333 10.3633 5.08889 10.43 5.26667 10.43C5.44444 10.43 5.57778 10.3633 5.66667 10.23L14.4667 1.49666ZM9.2 10.23L8.06667 9.09666L8.93333 8.22999L9.6 8.89666L17.9333 0.563326C18.0667 0.474437 18.2222 0.429992 18.4 0.429992C18.5778 0.429992 18.7222 0.485548 18.8333 0.596659C18.9444 0.70777 19 0.852215 19 1.02999C19 1.20777 18.9333 1.36333 18.8 1.49666L10.0667 10.23C9.93333 10.3633 9.77778 10.43 9.6 10.43C9.42222 10.43 9.28889 10.3633 9.2 10.23ZM5.66667 4.96333L6.8 6.09666L5.93333 6.96333L4.8 5.82999C4.66667 5.7411 4.6 5.60777 4.6 5.42999C4.6 5.25221 4.66667 5.09666 4.8 4.96333C4.93333 4.82999 5.08889 4.76333 5.26667 4.76333C5.44444 4.76333 5.57778 4.82999 5.66667 4.96333Z" fill="#0D83FD"/>
</svg>
