<svg width="20" height="21" viewBox="0 0 20 21" fill="none" xmlns="http://www.w3.org/2000/svg">
<path d="M20 10.08C20 11.9022 19.5556 13.58 18.6667 15.1133C17.7778 16.6467 16.5667 17.8578 15.0333 18.7467C13.5 19.6355 11.8222 20.08 10 20.08C8.17778 20.08 6.5 19.6355 4.96667 18.7467C3.43333 17.8578 2.22222 16.6467 1.33333 15.1133C0.444444 13.58 0 11.9022 0 10.08C0 8.25776 0.444444 6.57999 1.33333 5.04665C2.22222 3.51332 3.43333 2.30221 4.96667 1.41332C6.5 0.524429 8.17778 0.0799847 10 0.0799847C11.8222 0.0799847 13.5 0.524429 15.0333 1.41332C16.5667 2.30221 17.7778 3.51332 18.6667 5.04665C19.5556 6.57999 20 8.25776 20 10.08ZM15.0667 6.27999C14.8444 6.10221 14.6 6.01332 14.3333 6.01332C14.0667 6.01332 13.8444 6.12443 13.6667 6.34665L9.33333 11.88L6.73333 9.21332C6.55556 9.03554 6.33333 8.95776 6.06667 8.97999C5.8 9.00221 5.57778 9.10221 5.4 9.27999C5.22222 9.45776 5.13333 9.66887 5.13333 9.91332C5.13333 10.1578 5.22222 10.3689 5.4 10.5467L8.73333 13.88C8.91111 14.0578 9.13333 14.1467 9.4 14.1467C9.66667 14.1467 9.88889 14.0355 10.0667 13.8133L15.0667 7.61332C15.2444 7.43554 15.3333 7.21332 15.3333 6.94665C15.3333 6.67999 15.2444 6.45776 15.0667 6.27999Z" fill="#0D83FD"/>
</svg>
