<svg width="24" height="25" viewBox="0 0 24 25" fill="none" xmlns="http://www.w3.org/2000/svg">
<path d="M5.52018 2.74982C5.30684 2.48316 5.05351 2.34982 4.76018 2.34982C4.46684 2.34982 4.18684 2.45649 3.92018 2.66982L2.40018 4.18983C2.02684 4.56316 1.78684 4.98982 1.68018 5.46982C1.57351 5.94982 1.60018 6.40316 1.76018 6.82982C3.09351 10.6165 5.17351 13.9232 8.00018 16.7498C10.8268 19.5765 14.1335 21.6565 17.9202 22.9898C18.3468 23.1498 18.8002 23.1765 19.2802 23.0698C19.7602 22.9632 20.1868 22.7232 20.5602 22.3498L22.0802 20.8298C22.2935 20.5632 22.4002 20.2832 22.4002 19.9898C22.4002 19.6965 22.2668 19.4698 22.0002 19.3098L18.5602 16.5898C18.2935 16.3765 18.0002 16.3232 17.6802 16.4298L14.4002 17.2298C13.9735 17.3365 13.5335 17.3232 13.0802 17.1898C12.6268 17.0565 12.2402 16.8298 11.9202 16.5098L8.24018 12.8298C7.92018 12.5098 7.69351 12.1232 7.56018 11.6698C7.42684 11.2165 7.41351 10.7765 7.52018 10.3498L8.32018 7.06982C8.42684 6.74982 8.37351 6.45649 8.16018 6.18982L5.52018 2.74982ZM2.80018 1.54983C3.38684 0.963158 4.06684 0.696491 4.84018 0.749825C5.61351 0.803158 6.24018 1.14982 6.72018 1.78983L9.44018 5.22982C9.70684 5.54982 9.88018 5.90982 9.96018 6.30982C10.0402 6.70982 10.0268 7.09649 9.92018 7.46982L9.12018 10.7498C9.01351 11.1232 9.09351 11.4432 9.36018 11.7098L13.0402 15.3898C13.3068 15.6565 13.6268 15.7365 14.0002 15.6298L17.2802 14.8298C17.6535 14.7232 18.0402 14.7098 18.4402 14.7898C18.8402 14.8698 19.2002 15.0432 19.5202 15.3098L22.9602 18.0298C23.6002 18.5098 23.9468 19.1365 24.0002 19.9098C24.0535 20.6832 23.7868 21.3632 23.2002 21.9498L21.6802 23.4698C21.0935 24.0565 20.4135 24.4432 19.6402 24.6298C18.8668 24.8165 18.1068 24.7765 17.3602 24.5098C13.3602 23.1232 9.85351 20.9232 6.84018 17.9098C3.82684 14.8965 1.62684 11.3898 0.240177 7.38982C-0.0264897 6.64316 -0.0664897 5.88316 0.120177 5.10982C0.306844 4.33649 0.69351 3.65649 1.28018 3.06982L2.80018 1.54983Z" fill="white"/>
</svg>
