<svg width="24" height="19" viewBox="0 0 24 19" fill="none" xmlns="http://www.w3.org/2000/svg">
<path d="M0 3.3398C0 2.48647 0.293333 1.76647 0.88 1.17981C1.46667 0.593138 2.18667 0.299805 3.04 0.299805H21.04C21.84 0.299805 22.5333 0.593138 23.12 1.17981C23.7067 1.76647 24 2.48647 24 3.3398V15.3398C24 16.1931 23.7067 16.8998 23.12 17.4598C22.5333 18.0198 21.8133 18.2998 20.96 18.2998H3.04C2.18667 18.2998 1.46667 18.0198 0.88 17.4598C0.293333 16.8998 0 16.1931 0 15.3398V3.3398ZM3.04 1.81981C2.61333 1.81981 2.25333 1.96647 1.96 2.25981C1.66667 2.55314 1.52 2.91314 1.52 3.3398V3.65981L12 9.9798L22.48 3.65981V3.3398C22.48 2.91314 22.3333 2.55314 22.04 2.25981C21.7467 1.96647 21.4133 1.81981 21.04 1.81981H3.04ZM22.48 5.4198L15.44 9.65981L22.48 13.9798V5.4198ZM22.48 15.7398L14 10.5398L12 11.7398L10 10.5398L1.52 15.7398C1.62667 16.0598 1.81333 16.3265 2.08 16.5398C2.34667 16.7531 2.66667 16.8598 3.04 16.8598H21.04C21.36 16.8598 21.6533 16.7531 21.92 16.5398C22.1867 16.3265 22.3733 16.0598 22.48 15.7398ZM1.52 13.9798L8.56 9.65981L1.52 5.4198V13.9798Z" fill="white"/>
</svg>
