<svg width="25" height="25" viewBox="0 0 25 25" fill="none" xmlns="http://www.w3.org/2000/svg">
<path d="M2.96033 0.879988C3.547 0.29332 4.227 0.0266533 5.00033 0.0799866C5.77367 0.13332 6.40033 0.479986 6.88033 1.11999L9.60033 4.55999C9.867 4.87999 10.0403 5.23999 10.1203 5.63999C10.2003 6.03999 10.187 6.42665 10.0803 6.79999L9.28033 10.08C9.17367 10.4533 9.25367 10.7733 9.52033 11.04L13.2003 14.72C13.467 14.9867 13.787 15.0667 14.1603 14.96L17.4403 14.16C17.8137 14.0533 18.2003 14.04 18.6003 14.12C19.0003 14.2 19.3603 14.3733 19.6803 14.64L23.1203 17.36C23.7603 17.84 24.107 18.4667 24.1603 19.24C24.2137 20.0133 23.947 20.6933 23.3603 21.28L21.8403 22.8C21.2537 23.3867 20.5737 23.7733 19.8003 23.96C19.027 24.1467 18.267 24.1067 17.5203 23.84C13.5203 22.4533 10.0137 20.2533 7.00033 17.24C3.987 14.2267 1.787 10.72 0.400333 6.71999C0.133667 5.97332 0.0936665 5.21332 0.280333 4.43999C0.467 3.66665 0.853666 2.98665 1.44033 2.39999L2.96033 0.879988Z" fill="#0D83FD"/>
</svg>
