<svg width="20" height="21" viewBox="0 0 20 21" fill="none" xmlns="http://www.w3.org/2000/svg">
<path d="M11.7333 1.53323C11.5999 0.955448 11.2777 0.566561 10.7666 0.36656C10.2555 0.166559 9.74438 0.166559 9.23327 0.36656C8.72216 0.566561 8.39994 0.955448 8.2666 1.53323L8.13327 1.93323C7.95549 2.511 7.59994 2.91101 7.0666 3.13323C6.53327 3.35545 5.99994 3.311 5.4666 2.99989L5.13327 2.79989C4.59994 2.53323 4.07771 2.49989 3.5666 2.69989C3.05549 2.89989 2.69993 3.25545 2.49993 3.76656C2.29994 4.27767 2.33327 4.77767 2.59994 5.26656L2.79994 5.66656C3.11105 6.19989 3.15549 6.73323 2.93327 7.26656C2.71105 7.79989 2.31105 8.15545 1.73327 8.33323L1.33327 8.46656C0.75549 8.59989 0.366602 8.92212 0.166602 9.43323C-0.0333984 9.94434 -0.0333984 10.4554 0.166602 10.9666C0.366602 11.4777 0.75549 11.7999 1.33327 11.9332L1.73327 12.0666C2.31105 12.2443 2.71105 12.5999 2.93327 13.1332C3.15549 13.6666 3.11105 14.1999 2.79994 14.7332L2.59994 15.0666C2.33327 15.5999 2.29994 16.1221 2.49993 16.6332C2.69993 17.1443 3.05549 17.4999 3.5666 17.6999C4.07771 17.8999 4.57771 17.8666 5.0666 17.5999L5.4666 17.3999C5.99994 17.0888 6.53327 17.0443 7.0666 17.2666C7.59994 17.4888 7.95549 17.8888 8.13327 18.4666L8.2666 18.8666C8.39994 19.4443 8.72216 19.8332 9.23327 20.0332C9.74438 20.2332 10.2555 20.2332 10.7666 20.0332C11.2777 19.8332 11.5999 19.4443 11.7333 18.8666L11.8666 18.4666C12.0444 17.8888 12.3999 17.4888 12.9333 17.2666C13.4666 17.0443 13.9999 17.0888 14.5333 17.3999L14.9333 17.5999C15.4222 17.8666 15.9222 17.8999 16.4333 17.6999C16.9444 17.4999 17.2999 17.1443 17.4999 16.6332C17.6999 16.1221 17.6666 15.6221 17.3999 15.1332L17.1999 14.7332C16.8888 14.1999 16.8444 13.6666 17.0666 13.1332C17.2888 12.5999 17.6888 12.2443 18.2666 12.0666L18.6666 11.9332C19.2444 11.7999 19.6333 11.4777 19.8333 10.9666C20.0333 10.4554 20.0333 9.94434 19.8333 9.43323C19.6333 8.92212 19.2444 8.59989 18.6666 8.46656L18.2666 8.33323C17.6888 8.15545 17.2888 7.79989 17.0666 7.26656C16.8444 6.73323 16.8888 6.19989 17.1999 5.66656L17.3999 5.26656C17.6666 4.77767 17.6999 4.27767 17.4999 3.76656C17.2999 3.25545 16.9444 2.89989 16.4333 2.69989C15.9222 2.49989 15.4222 2.53323 14.9333 2.79989L14.5333 2.99989C13.9999 3.311 13.4666 3.35545 12.9333 3.13323C12.3999 2.91101 12.0444 2.511 11.8666 1.93323L11.7333 1.53323ZM9.99994 13.8666C8.97771 13.8666 8.11105 13.511 7.39994 12.7999C6.68882 12.0888 6.33327 11.2221 6.33327 10.1999C6.33327 9.17767 6.68882 8.311 7.39994 7.59989C8.11105 6.88878 8.97771 6.53323 9.99994 6.53323C11.0222 6.53323 11.8888 6.88878 12.5999 7.59989C13.311 8.311 13.6666 9.17767 13.6666 10.1999C13.6666 11.2221 13.311 12.0888 12.5999 12.7999C11.8888 13.511 11.0222 13.8666 9.99994 13.8666Z" fill="#0D83FD"/>
</svg>
