<svg width="20" height="25" viewBox="0 0 20 25" fill="none" xmlns="http://www.w3.org/2000/svg">
<path d="M16.24 13.6002C15.5466 14.9868 14.56 16.5068 13.28 18.1602C12.2666 19.4935 11.1733 20.7735 9.99996 22.0002C8.82663 20.7735 7.73329 19.4935 6.71996 18.1602C5.43996 16.5068 4.45329 14.9868 3.75996 13.6002C2.90663 11.8935 2.47996 10.3868 2.47996 9.08016C2.47996 7.77349 2.81329 6.54682 3.47996 5.40016C4.14663 4.25349 5.06663 3.34682 6.23996 2.68016C7.41329 2.01349 8.66663 1.68016 9.99996 1.68016C11.3333 1.68016 12.5866 2.01349 13.76 2.68016C14.9333 3.34682 15.8533 4.25349 16.52 5.40016C17.1866 6.54682 17.52 7.77349 17.52 9.08016C17.52 10.3868 17.0933 11.8935 16.24 13.6002ZM9.99996 24.1602C10.48 23.6802 10.96 23.2002 11.44 22.7202C12.56 21.5468 13.5733 20.3468 14.48 19.1202C15.8133 17.3602 16.8533 15.7335 17.6 14.2402C18.56 12.3202 19.04 10.6135 19.04 9.12016C19.04 7.52016 18.6266 6.02682 17.8 4.64016C16.9733 3.25349 15.88 2.16016 14.52 1.36016C13.16 0.560156 11.6533 0.160156 9.99996 0.160156C8.34663 0.160156 6.83996 0.560156 5.47996 1.36016C4.11996 2.16016 3.02663 3.25349 2.19996 4.64016C1.37329 6.02682 0.959961 7.52016 0.959961 9.12016C0.959961 10.6135 1.43996 12.3202 2.39996 14.2402C3.14663 15.7335 4.18663 17.3602 5.51996 19.1202C6.42663 20.3468 7.43996 21.5468 8.55996 22.7202L9.99996 24.1602ZM9.99996 12.1602C9.14663 12.1602 8.43996 11.8668 7.87996 11.2802C7.31996 10.6935 7.03996 9.98682 7.03996 9.16016C7.03996 8.33349 7.31996 7.62682 7.87996 7.04016C8.43996 6.45349 9.14663 6.16016 9.99996 6.16016C10.8533 6.16016 11.5733 6.45349 12.16 7.04016C12.7466 7.62682 13.04 8.33349 13.04 9.16016C13.04 9.98682 12.7466 10.6935 12.16 11.2802C11.5733 11.8668 10.8533 12.1602 9.99996 12.1602ZM9.99996 13.6802C11.2266 13.6802 12.28 13.2402 13.16 12.3602C14.04 11.4802 14.48 10.4135 14.48 9.16016C14.48 7.90682 14.04 6.84016 13.16 5.96016C12.28 5.08016 11.2266 4.64016 9.99996 4.64016C8.77329 4.64016 7.71996 5.08016 6.83996 5.96016C5.95996 6.84016 5.51996 7.90682 5.51996 9.16016C5.51996 10.4135 5.95996 11.4802 6.83996 12.3602C7.71996 13.2402 8.77329 13.6802 9.99996 13.6802Z" fill="white"/>
</svg>
